<?xml version="1.0" encoding="utf-8"?>
<!-- Generator: Adobe Illustrator 22.1.0, SVG Export Plug-In . SVG Version: 6.00 Build 0)  -->
<svg version="1.1" id="Capa_1" xmlns="http://www.w3.org/2000/svg" xmlns:xlink="http://www.w3.org/1999/xlink" x="0px" y="0px"
	 viewBox="0 0 172.1 349.8" style="enable-background:new 0 0 172.1 349.8;" xml:space="preserve">
<style type="text/css">
	.st0{fill:none;}
	.st1{fill:#FFFFFF;}
	.st2{fill:#2D2D2D;}
	.st3{font-family:'Avenir-Medium';}
	.st4{font-size:5.4111px;}
	.st5{font-family:'Avenir-Black';}
	.st6{font-size:4.2785px;}
</style>
<g id="BACKGROUND">
</g>
<g id="OBJECTS">
	<g>
		<path class="st0" d="M8.1,27.1c0,1.2-0.1,2.5-0.1,4v286.8c0,9.6,0.8,13.8,5.4,18.2c1.9,1.9,5.8,4.1,13.4,4.1h118.6
			c7.6,0,11.5-2.2,13.4-4.1c4.6-4.4,5.4-8.6,5.4-18.2V31.1c0-1.4,0-2.7-0.1-4H8.1z"/>
		<path d="M158.9,12.9c-1.9-1.9-5.8-4.1-13.4-4.1H132c-0.7,0.1-1.7,0.5-1.8,2.1c-0.1,2.2-0.4,5.2-2.7,7.4c-1.7,1.7-4,2.6-6.3,2.6
			c-5,0-64.6,0-69.7,0c-2.3,0-4.6-0.8-6.3-2.6c-2.2-2.3-2.5-5.2-2.7-7.4c-0.1-1.6-1.1-2-1.8-2.1H26.8c-7.6,0-11.5,2.2-13.4,4.1
			c-3.9,3.7-5,7.3-5.3,14.2h156.1C163.9,20.2,162.8,16.6,158.9,12.9z"/>
		<path class="st1" d="M164.3,6.7c-3.1-3.1-9.1-6.7-19.6-6.7h-117C17.1,0,11.2,3.6,8,6.7C1.2,13.4,0,20,0,31.4v287
			c0,11.4,1.2,18,8,24.7c3.1,3.1,9.1,6.7,19.6,6.7h116.9c10.5,0,16.5-3.6,19.6-6.7c6.8-6.7,8-13.3,8-24.7v-287
			C172.3,20,171.1,13.4,164.3,6.7z M164.3,317.9c0,9.6-0.8,13.8-5.4,18.2c-1.9,1.9-5.8,4.1-13.4,4.1H26.9c-7.6,0-11.5-2.2-13.4-4.1
			c-4.6-4.4-5.4-8.6-5.4-18.2V31.1c0-1.4,0-2.7,0.1-4c0.3-6.9,1.4-10.5,5.3-14.2c1.9-1.9,5.8-4.1,13.4-4.1h13.9
			c0.7,0.1,1.7,0.5,1.8,2.1c0.1,2.2,0.4,5.2,2.7,7.4c1.7,1.7,4,2.6,6.3,2.6c5,0,64.6,0,69.7,0c2.3,0,4.6-0.8,6.3-2.6
			c2.2-2.3,2.5-5.2,2.7-7.4c0.1-1.6,1.1-2,1.8-2.1h13.5c7.6,0,11.5,2.2,13.4,4.1c3.9,3.7,5,7.3,5.3,14.2c0,1.2,0.1,2.5,0.1,4v286.8
			H164.3z"/>
	</g>
	<g id="XMLID_433_">
		<g>
			<g id="XMLID_16_">
				<ellipse class="st2" cx="105.2" cy="12.5" rx="2.7" ry="2.7"/>
			</g>
		</g>
	</g>
	<g id="XMLID_30_">
		<g>
			<g id="XMLID_20_">
				<ellipse cx="105.2" cy="12.5" rx="0.9" ry="0.9"/>
			</g>
		</g>
	</g>
	<g id="XMLID_420_">
		<g>
			<path id="SVGID_1_" class="st2" d="M97,12.5c0,0.8-0.6,1.4-1.4,1.4h-19c-0.8,0-1.4-0.6-1.4-1.4l0,0c0-0.8,0.6-1.4,1.4-1.4h18.9
				C96.3,11,97,11.7,97,12.5L97,12.5z"/>
		</g>
	</g>
	<g id="XMLID_380_">
		<path id="XMLID_29_" class="st1" d="M139.9,18c-0.3-0.3-0.5-0.5-0.8-0.8c1.6-1.7,4.5-1.7,6.2,0c-0.3,0.3-0.5,0.5-0.8,0.8
			c-0.6-0.6-1.4-0.9-2.3-0.9C141.3,17.1,140.5,17.4,139.9,18z"/>
		<path id="XMLID_27_" class="st1" d="M141,19.2c-0.3-0.3-0.5-0.5-0.8-0.8c1-1,2.8-1.1,3.9,0c-0.3,0.3-0.5,0.5-0.8,0.8
			C142.6,18.6,141.8,18.6,141,19.2z"/>
		<path id="XMLID_24_" class="st1" d="M142.9,19.6c-0.3,0.3-0.5,0.5-0.8,0.8c-0.3-0.3-0.5-0.5-0.8-0.8
			C141.7,19.2,142.5,19.1,142.9,19.6z"/>
	</g>
	<g id="XMLID_176_">
		<path id="XMLID_197_" class="st1" d="M154.7,15.8h-6.8c-0.5,0-1,0.4-1,1v2.6c0,0.5,0.4,1,1,1h6.8c0.5,0,1-0.4,1-1v-2.6
			C155.7,16.3,155.2,15.8,154.7,15.8z M155.3,19.5c0,0.3-0.3,0.6-0.6,0.6h-6.8c-0.3,0-0.6-0.3-0.6-0.6v-2.6c0-0.3,0.3-0.6,0.6-0.6
			h6.8c0.3,0,0.6,0.3,0.6,0.6V19.5z"/>
		<path id="XMLID_13_" class="st1" d="M154.9,19.5c0,0.1-0.1,0.2-0.2,0.2h-6.8c-0.1,0-0.2-0.1-0.2-0.2v-2.6c0-0.1,0.1-0.2,0.2-0.2
			h6.8c0.1,0,0.2,0.1,0.2,0.2V19.5z"/>
		<path id="XMLID_1_" class="st1" d="M156.6,18.2c0,0.3-0.2,0.5-0.5,0.5c0-0.4,0-0.8,0-1.1C156.4,17.6,156.6,17.9,156.6,18.2z"/>
	</g>
	<text transform="matrix(1 0 0 1 20.9221 20.0115)" class="st1 st3 st4">22:07</text>
	<text transform="matrix(1 0 0 1 37.1269 20.0117)" class="st1 st5 st6">E</text>
	<g>
		<g>
			<rect x="135.4" y="15.9" class="st1" width="1.1" height="4.5"/>
		</g>
		<g>
			<rect x="133.6" y="16.9" class="st1" width="1.1" height="3.5"/>
		</g>
		<g>
			<rect x="131.7" y="18.2" class="st1" width="1.1" height="2.3"/>
		</g>
		<g>
			<rect x="129.9" y="19.2" class="st1" width="1.1" height="1.3"/>
		</g>
	</g>
</g>
<g id="DESIGNED_BY_FREEPIK">
</g>
</svg>
