<svg xmlns="http://www.w3.org/2000/svg" width="20" height="33" viewBox="0 0 20 33">
    <g fill="#FFF" fill-rule="evenodd">
        <path d="M15.961 3.013v5.903l-1.667-1.699-.964.983 3.313 3.376L19.956 8.2l-.964-.983-1.667 1.699V3.013zM13.33 28.687l-.011 2.923H5.462v-2.56l-4.098-5.224v-3.44c0-.851.684-1.543 1.525-1.546l1.453-.054V7.618a.918.918 0 0 1 .265-.648.862.862 0 0 1 .616-.26h.005c.49.003.902.423.9.918v10.187h1.364v-2.033c0-.497.4-.902.892-.902.493 0 .893.405.893.902v2.033h1.364v-1.01c0-.498.396-.902.884-.902s.885.404.885.901v1.011h1.4a.889.889 0 0 1 .848-.647c.488 0 .884.405.884.903l.012 6.585-2.223 4.031zM2.544 8.563a3.749 3.749 0 0 1-.931-2.47c0-2.042 1.63-3.703 3.634-3.703S8.881 4.05 8.881 6.093a3.73 3.73 0 0 1-.957 2.51l-.432.479v-1.45A2.299 2.299 0 0 0 6.828 6a2.238 2.238 0 0 0-1.594-.679h-.01c-1.233 0-2.24 1.03-2.246 2.294V9.06l-.435-.497zm12.115 7.215c-.275 0-.543.05-.799.15l-.213.083-.1-.209a2.262 2.262 0 0 0-2.02-1.289c-.31 0-.612.064-.896.19l-.2.089-.112-.19a2.265 2.265 0 0 0-1.933-1.111c-.196 0-.39.026-.58.077l-.313.084v-3.005l.13-.072a4.992 4.992 0 0 0 1.733-1.58c.582-.855.89-1.858.89-2.902C10.245 3.285 8.002 1 5.247 1 2.49 1 .248 3.285.248 6.093c0 1.05.311 2.058.9 2.916a4.994 4.994 0 0 0 1.7 1.554l.13.072v6.807l-.236.013C1.204 17.536 0 18.823 0 20.385v3.929l4.098 5.223V33h10.579l.016-3.946.032-.058 2.194-3.977-.013-6.95c0-1.263-1.008-2.29-2.248-2.29zM15.937 1.664h1.412V.614h-1.412z"/>
    </g>
</svg>
