<svg xmlns="http://www.w3.org/2000/svg" width="102" height="116" viewBox="0 0 102 116">
    <defs>
        <filter id="a" width="192.4%" height="251.6%" x="-46.2%" y="-75.8%" filterUnits="objectBoundingBox">
            <feGaussianBlur in="SourceGraphic" stdDeviation="8"/>
        </filter>
        <linearGradient id="b" x1="69.312%" x2="32.067%" y1="0%" y2="100%">
            <stop offset="0%" stop-color="#A2C6FE"/>
            <stop offset="100%" stop-color="#6994FC"/>
        </linearGradient>
    </defs>
    <g fill="none" fill-rule="evenodd">
        <path fill="#122655" fill-rule="nonzero" d="M53.133 71l26.696 13.348a2 2 0 0 1 .114 3.516l-24.855 14.523a2 2 0 0 1-2.077-.036L29.932 87.769a2 2 0 0 1 .069-3.424L53.133 71z" filter="url(#a)" opacity=".609"/>
        <path fill="#204AAF" d="M85.314 54.211V78.24c0 .636-.35 1.222-.91 1.533l-24.61 13.501a1.77 1.77 0 0 1-.834.206V67.636l26.104-14.322c.161.267.25.576.25.897z"/>
        <path fill="#305FCF" d="M58.96 67.636v25.843c-.287 0-.573-.067-.833-.206L33.516 79.771c-.56-.31-.91-.897-.91-1.532V54.211c0-.32.089-.63.25-.897L58.96 67.636z"/>
        <path fill="url(#b)" d="M52.339 14.408L26.235 28.73.13 14.408c.156-.262.383-.485.663-.637L25.382.283a1.788 1.788 0 0 1 1.66-.026l17.427 9.56 7.205 3.954c.28.152.507.375.665.637z" transform="translate(32.725 38.907)"/>
        <g>
            <path fill="#204AAF" d="M70.314 39.211V63.24c0 .636-.35 1.222-.91 1.533l-24.61 13.501a1.77 1.77 0 0 1-.834.206V52.636l26.104-14.322c.161.267.25.576.25.897z"/>
            <path fill="#305FCF" d="M43.96 52.636v25.843c-.287 0-.573-.067-.833-.206L18.516 64.771c-.56-.31-.91-.897-.91-1.532V39.211c0-.32.089-.63.25-.897L43.96 52.636z"/>
            <path fill="url(#b)" d="M52.339 14.408L26.235 28.73.13 14.408c.156-.262.383-.485.663-.637L25.382.283a1.788 1.788 0 0 1 1.66-.026l17.427 9.56 7.205 3.954c.28.152.507.375.665.637z" transform="translate(17.725 23.907)"/>
        </g>
    </g>
</svg>
