<?xml version="1.0" encoding="utf-8"?>
<!-- Generator: Adobe Illustrator 22.1.0, SVG Export Plug-In . SVG Version: 6.00 Build 0)  -->
<svg version="1.1" id="Capa_1" xmlns="http://www.w3.org/2000/svg" xmlns:xlink="http://www.w3.org/1999/xlink" x="0px" y="0px"
	 viewBox="0 0 126.8 20.1" style="enable-background:new 0 0 126.8 20.1;" xml:space="preserve">
<style type="text/css">
	.st0{fill:#FFFFFF;}
</style>
<path class="st0" d="M7,12c-0.1-0.5-0.3-0.9-0.6-1.1c-0.3-0.2-0.8-0.3-1.4-0.3s-1.1,0.1-1.4,0.2c-0.3,0.1-0.5,0.4-0.5,0.7
	s0.2,0.5,0.5,0.7s0.8,0.4,1.4,0.5l2.5,0.7c0.7,0.2,1.2,0.4,1.6,0.7s0.7,0.6,0.9,1c0.2,0.4,0.3,0.9,0.3,1.5c0,1-0.4,1.8-1.2,2.5
	c-0.8,0.7-2.1,1-3.7,1c-0.8,0-1.5-0.1-2.2-0.3S2,19.4,1.5,19c-0.4-0.3-0.8-0.7-1.1-1.2c-0.2-0.5-0.4-1-0.4-1.6h3
	c0,0.5,0.2,0.9,0.6,1.2c0.4,0.3,1,0.4,1.6,0.4s1-0.1,1.4-0.3c0.4-0.2,0.6-0.4,0.6-0.8S7.1,16,6.8,15.8c-0.3-0.2-0.7-0.3-1.4-0.5
	c-1.1-0.2-2-0.5-2.6-0.8c-0.7-0.3-1.2-0.6-1.6-0.9c-0.4-0.3-0.6-0.7-0.8-1c-0.1-0.4-0.2-0.8-0.2-1.3c0-0.4,0.1-0.8,0.3-1.2
	c0.2-0.4,0.5-0.7,0.8-1c0.4-0.3,0.9-0.5,1.5-0.7S4.1,8.1,5,8.1c1.6,0,2.8,0.3,3.5,1c0.7,0.6,1.1,1.5,1.2,2.7H7V12z"/>
<path class="st0" d="M25,14.3c-0.2,0.1-0.4,0.3-0.7,0.4c-0.3,0.1-0.7,0.2-1.2,0.3c-0.8,0.2-1.4,0.4-1.8,0.6
	c-0.3,0.3-0.5,0.6-0.5,1.1c0,0.8,0.5,1.2,1.4,1.2c0.4,0,0.7-0.1,1.1-0.2c0.3-0.1,0.6-0.3,0.8-0.5c0.2-0.2,0.4-0.5,0.6-0.8
	c0.1-0.3,0.2-0.6,0.2-0.9C24.9,15.5,25,14.3,25,14.3z M25.2,19.7c-0.1-0.3-0.2-0.7-0.2-1c-0.3,0.4-0.8,0.7-1.4,0.9
	c-0.6,0.2-1.2,0.3-2,0.3c-1.3,0-2.2-0.3-2.8-0.8c-0.6-0.6-0.9-1.3-0.9-2.2c0-0.8,0.1-1.4,0.4-1.9c0.2-0.5,0.6-0.8,1.1-1.1
	s1-0.5,1.6-0.6c0.7-0.1,1.4-0.3,2.1-0.3c0.7-0.1,1.2-0.2,1.5-0.4s0.4-0.5,0.4-0.8c0-0.4-0.2-0.6-0.5-0.8s-0.8-0.3-1.4-0.3
	c-0.7,0-1.2,0.1-1.5,0.4c-0.3,0.3-0.5,0.7-0.6,1.2h-2.8c0-0.5,0.1-1.1,0.3-1.6c0.2-0.5,0.5-0.9,0.8-1.2c0.4-0.3,0.9-0.6,1.5-0.8
	s1.4-0.3,2.3-0.3s1.6,0.1,2.2,0.3s1.1,0.5,1.5,0.8c0.4,0.4,0.6,0.8,0.8,1.4c0.2,0.5,0.2,1.2,0.2,1.9v7L25.2,19.7L25.2,19.7z
	 M30,19.7v-9h-1.7v-2H30c0-2.7,1.6-4,4.8-4V7c-0.4,0-0.7,0-0.9,0c-0.2,0.1-0.4,0.1-0.6,0.3c-0.1,0.1-0.2,0.3-0.3,0.5
	c-0.1,0.2-0.1,0.5-0.1,0.8h2v2.1H33v9H30z M37.3,19.7v-9h-1.7v-2h1.7c0-2.7,1.6-4,4.8-4V7c-0.4,0-0.7,0-0.9,0.1
	c-0.2,0-0.4,0.1-0.6,0.3c-0.1,0.1-0.2,0.3-0.3,0.5c0,0.2-0.1,0.5-0.1,0.8h1.9v2.1h-1.9v9L37.3,19.7L37.3,19.7z"/>
<path class="st0" d="M54.9,15.7c-0.1,0.6-0.3,1.2-0.6,1.8c-0.3,0.5-0.7,1-1.1,1.4c-0.5,0.4-1,0.7-1.6,0.9c-0.6,0.2-1.3,0.3-1.9,0.3
	c-0.8,0-1.5-0.1-2.1-0.4c-0.6-0.2-1.2-0.6-1.6-1.1c-0.5-0.5-0.8-1.1-1.1-1.9c-0.2-0.7-0.4-1.6-0.4-2.6s0.1-1.8,0.4-2.6
	c0.3-0.7,0.6-1.3,1.1-1.8s1-0.8,1.6-1s1.4-0.3,2.1-0.3s1.4,0.1,2,0.3s1.1,0.5,1.6,0.9c0.4,0.4,0.8,0.8,1.1,1.3
	c0.3,0.5,0.4,1.1,0.5,1.8h-3c-0.1-0.6-0.3-1-0.7-1.3c-0.4-0.3-0.9-0.5-1.4-0.5c-0.3,0-0.6,0.1-0.9,0.2c-0.3,0.1-0.5,0.3-0.7,0.5
	s-0.4,0.6-0.5,1s-0.2,0.9-0.2,1.5c0,1.2,0.2,2.1,0.7,2.7c0.4,0.6,0.9,0.9,1.5,0.9s1.1-0.2,1.5-0.5s0.6-0.8,0.7-1.4
	C51.9,15.7,54.9,15.7,54.9,15.7z M55.6,19.7v-11h2.8V10c0.2-0.4,0.5-0.7,0.8-0.9s0.5-0.4,0.8-0.5s0.6-0.2,0.9-0.2s0.6,0,0.9,0h0.4v3
	c-0.3,0-0.5-0.1-0.8-0.1c-1.8,0-2.7,0.9-2.7,2.7v5.7H55.6L55.6,19.7z M69.6,13.1c0-0.4-0.1-0.7-0.2-1.1c-0.1-0.3-0.3-0.5-0.5-0.8
	c-0.2-0.2-0.5-0.4-0.7-0.5c-0.3-0.1-0.6-0.1-0.8-0.1c-0.6,0-1.1,0.2-1.5,0.6c-0.4,0.4-0.7,1-0.7,1.8h4.4V13.1z M64.9,14.9
	c0,0.8,0.3,1.5,0.7,2c0.4,0.5,1,0.7,1.8,0.7c0.5,0,0.9-0.1,1.3-0.3c0.4-0.2,0.6-0.5,0.7-0.9h3c-0.3,1.1-1,2-1.8,2.6
	c-0.9,0.6-1.9,0.9-3.1,0.9c-3.7,0-5.6-2-5.6-6c0-0.9,0.1-1.6,0.4-2.3c0.2-0.7,0.6-1.3,1.1-1.8c0.5-0.4,1-0.8,1.7-1
	c0.7-0.3,1.4-0.4,2.3-0.4c1.7,0,3,0.5,3.9,1.6s1.3,2.7,1.3,4.9C72.6,14.9,64.9,14.9,64.9,14.9z M80.3,14.3c-0.2,0.1-0.4,0.3-0.7,0.4
	c-0.3,0.1-0.7,0.2-1.3,0.3c-0.9,0.2-1.4,0.4-1.8,0.6c-0.3,0.3-0.5,0.6-0.5,1.1c0,0.8,0.5,1.2,1.4,1.2c0.4,0,0.7-0.1,1.1-0.2
	c0.3-0.1,0.6-0.3,0.8-0.5s0.4-0.5,0.6-0.8c0.1-0.3,0.2-0.6,0.2-0.9L80.3,14.3L80.3,14.3z M80.5,19.7c-0.1-0.3-0.2-0.7-0.2-1
	c-0.3,0.4-0.8,0.7-1.4,0.9c-0.6,0.2-1.2,0.3-2,0.3c-1.3,0-2.2-0.3-2.8-0.8c-0.6-0.6-0.9-1.3-0.9-2.2c0-0.8,0.1-1.4,0.4-1.9
	c0.2-0.5,0.6-0.8,1.1-1.1s1-0.5,1.6-0.6c0.7-0.1,1.4-0.3,2.1-0.3c0.7-0.1,1.2-0.2,1.5-0.4s0.4-0.5,0.4-0.8c0-0.4-0.2-0.6-0.5-0.8
	s-0.8-0.3-1.4-0.3c-0.7,0-1.2,0.1-1.5,0.4c-0.3,0.3-0.5,0.7-0.6,1.2h-2.8c0-0.6,0.1-1.1,0.3-1.6s0.5-0.9,0.8-1.2
	c0.4-0.3,0.9-0.6,1.5-0.8c0.6-0.2,1.4-0.3,2.3-0.3c0.9,0,1.6,0.1,2.2,0.3c0.6,0.2,1.1,0.5,1.5,0.8c0.4,0.3,0.6,0.8,0.8,1.4
	c0.2,0.6,0.3,1.2,0.2,1.9v7L80.5,19.7L80.5,19.7z"/>
<path class="st0" d="M93.6,19.7h3v-11h-3V19.7L93.6,19.7z M93.6,7.3h3V4.6h-3V7.3L93.6,7.3z M101.3,19.7l-4-11h3.3l2.3,7.3l2.4-7.3
	h3.1l-4,11H101.3z M115,14.3c-0.2,0.1-0.4,0.3-0.7,0.4c-0.3,0.1-0.7,0.2-1.2,0.3c-0.8,0.2-1.4,0.4-1.8,0.6c-0.3,0.3-0.5,0.6-0.5,1.1
	c0,0.8,0.5,1.2,1.4,1.2c0.4,0,0.7-0.1,1.1-0.2c0.6-0.2,1.1-0.7,1.4-1.3c0.1-0.3,0.2-0.6,0.2-0.9C115,15.5,115,14.3,115,14.3z
	 M115.2,19.7c-0.1-0.3-0.2-0.7-0.2-1c-0.3,0.4-0.8,0.7-1.4,0.9c-0.6,0.2-1.2,0.3-2,0.3c-1.3,0-2.2-0.3-2.8-0.8
	c-0.6-0.5-0.9-1.2-0.9-2.1c0-0.8,0.1-1.4,0.4-1.9c0.3-0.5,0.6-0.8,1.1-1.1s1-0.5,1.6-0.6c0.7-0.1,1.4-0.3,2.1-0.3
	c0.7-0.1,1.2-0.2,1.5-0.4c0.3-0.2,0.4-0.5,0.4-0.8c0-0.4-0.2-0.6-0.5-0.8c-0.3-0.2-0.8-0.3-1.4-0.3c-0.7,0-1.2,0.1-1.5,0.4
	c-0.3,0.3-0.5,0.7-0.6,1.2h-2.8c0-0.5,0.1-1.1,0.3-1.6c0.2-0.5,0.5-0.9,0.8-1.2c0.4-0.3,0.9-0.6,1.5-0.8c0.6-0.2,1.4-0.3,2.3-0.3
	s1.6,0.1,2.2,0.3s1.1,0.5,1.5,0.8c0.4,0.3,0.6,0.8,0.8,1.4c0.2,0.4,0.3,1,0.3,1.7v7H115.2L115.2,19.7z"/>
<path class="st0" d="M10.5,10.6v-2h1.6V5.5H15v3.1h1.8v2.1H15v5.9c0,0.5,0.1,0.7,0.2,0.8c0.1,0.1,0.5,0.2,1.1,0.2c0.1,0,0.2,0,0.3,0
	c0.1,0,0.2,0,0.3,0v2.2h-1.4c-1.4,0-2.3-0.2-2.8-0.7c-0.3-0.3-0.5-0.8-0.5-1.5v-6.8C12.1,10.6,10.5,10.6,10.5,10.6z"/>
<path class="st0" d="M84.7,10.6v-2h1.6V5.5h2.9v3.1H91v2.1h-1.8v5.9c0,0.5,0.1,0.7,0.2,0.9c0.1,0.1,0.5,0.2,1.1,0.2
	c0.1,0,0.2,0,0.3,0c0.1,0,0.2,0,0.3,0v2.2L89.7,20c-1.4,0-2.3-0.2-2.8-0.7c-0.3-0.3-0.5-0.8-0.5-1.5V11
	C86.3,10.6,84.7,10.6,84.7,10.6z M118.1,1.5c0,0.8-0.7,1.5-1.5,1.5c-0.8,0-1.5-0.7-1.5-1.5s0.7-1.5,1.5-1.5
	C117.4,0,118.1,0.7,118.1,1.5 M123.5,3.5c0,1-0.8,1.7-1.8,1.7s-1.8-0.8-1.8-1.7c0-1,0.8-1.7,1.8-1.7C122.7,1.7,123.5,2.5,123.5,3.5
	 M126.8,8.5c0,1.2-1,2.2-2.2,2.2c-1.2,0-2.2-1-2.2-2.2s1-2.2,2.2-2.2C125.8,6.3,126.8,7.3,126.8,8.5"/>
</svg>
