<svg xmlns="http://www.w3.org/2000/svg" xmlns:xlink="http://www.w3.org/1999/xlink" width="207" height="34" viewBox="0 0 207 34">
    <defs>
        <path id="a" d="M0 .01h16.76v19.095H0z"/>
    </defs>
    <g fill="none" fill-rule="evenodd">
        <g transform="translate(0 14.221)">
            <mask id="b" fill="#fff">
                <use xlink:href="#a"/>
            </mask>
            <path fill="#000" d="M11.609 5.978c-.125-.834-.441-1.444-.95-1.822-.506-.381-1.275-.571-2.315-.571-.988 0-1.736.114-2.243.35-.506.228-.761.631-.761 1.196 0 .493.255.887.761 1.178.507.297 1.245.583 2.207.848 1.581.445 2.92.82 4.007 1.129 1.083.305 1.954.67 2.611 1.086.657.42 1.125.94 1.41 1.567.284.627.424 1.468.424 2.52 0 1.625-.682 2.971-2.036 4.042-1.364 1.068-3.375 1.604-6.045 1.604-1.311 0-2.5-.147-3.56-.443-1.062-.298-1.972-.719-2.725-1.272-.753-.554-1.336-1.217-1.745-1.99-.407-.773-.62-1.642-.65-2.6H4.97c0 .87.34 1.543 1.017 2.018.686.475 1.568.712 2.656.712.913 0 1.7-.144 2.356-.428.652-.284.981-.72.981-1.31 0-.663-.243-1.147-.724-1.443-.483-.295-1.217-.552-2.204-.776-1.782-.394-3.213-.807-4.302-1.236-1.087-.433-1.934-.905-2.54-1.425-.608-.515-1.014-1.08-1.226-1.698-.21-.617-.315-1.308-.315-2.07 0-.693.14-1.342.43-1.957.28-.617.736-1.16 1.352-1.626C3.068 1.09 3.873.715 4.86.435 5.846.149 7.061.009 8.493.009c2.619 0 4.538.527 5.75 1.584 1.205 1.055 1.874 2.52 1.997 4.385h-4.631z" mask="url(#b)"/>
        </g>
        <path fill="#000" d="M40.865 23.963c-.247.242-.608.438-1.078.588-.471.147-1.149.307-2.039.478-1.386.27-2.339.614-2.854 1.033-.52.42-.78 1.021-.78 1.805 0 1.355.78 2.027 2.337 2.027.619 0 1.19-.102 1.722-.31a4.226 4.226 0 0 0 1.371-.848c.385-.356.694-.777.93-1.255.235-.48.35-.988.35-1.533l.04-1.985zm.332 8.883a7.032 7.032 0 0 1-.295-1.621c-.571.637-1.327 1.15-2.264 1.529-.94.381-2.028.571-3.265.571-2.097 0-3.637-.462-4.614-1.383-.977-.92-1.465-2.116-1.465-3.596 0-1.3.21-2.34.63-3.113a4.684 4.684 0 0 1 1.746-1.826c.74-.442 1.625-.77 2.652-.977a55.617 55.617 0 0 1 3.352-.568c1.211-.174 2.027-.401 2.447-.685.423-.28.627-.744.627-1.385 0-.586-.274-1.047-.835-1.382-.552-.33-1.298-.494-2.239-.494-1.111 0-1.91.247-2.393.737-.48.492-.784 1.139-.907 1.954h-4.486c.024-.931.178-1.797.465-2.579.281-.79.74-1.464 1.368-2.031.635-.564 1.452-1 2.464-1.305 1.013-.311 2.248-.464 3.702-.464 1.426 0 2.641.16 3.638.48.996.318 1.8.778 2.402 1.382.606.602 1.042 1.351 1.31 2.249.27.9.409 1.91.409 3.043v11.464h-4.449zM49.133 32.846V18.099h-2.707v-3.39h2.707c0-4.424 2.591-6.639 7.784-6.639v3.874c-.618 0-1.121.041-1.5.124-.383.093-.69.243-.913.463-.216.22-.375.512-.458.868-.09.357-.13.795-.13 1.31h3.112v3.39h-3.113v14.747h-4.782zM61.035 32.846V18.099h-2.71v-3.39h2.71c0-4.424 2.592-6.639 7.788-6.639v3.874c-.621 0-1.125.041-1.508.124-.377.093-.683.243-.907.463-.225.22-.379.512-.465.868a5.928 5.928 0 0 0-.127 1.31h3.115v3.39h-3.115v14.747h-4.78zM89.708 26.283c-.126 1.058-.427 2.018-.912 2.875a7.808 7.808 0 0 1-1.836 2.215 8.406 8.406 0 0 1-2.539 1.436c-.95.343-1.98.517-3.093.517-1.239 0-2.37-.205-3.393-.611a7.027 7.027 0 0 1-2.652-1.842c-.743-.823-1.316-1.841-1.728-3.06-.405-1.217-.605-2.637-.605-4.263 0-1.617.2-3.016.605-4.197.412-1.18.985-2.146 1.728-2.894a6.939 6.939 0 0 1 2.69-1.676c1.047-.375 2.216-.557 3.503-.557 1.187 0 2.267.162 3.242.483.98.321 1.83.783 2.558 1.4a6.69 6.69 0 0 1 1.726 2.21c.422.862.667 1.823.744 2.877h-4.86c-.125-.936-.501-1.661-1.125-2.194-.635-.523-1.407-.792-2.322-.792-.522 0-1.001.089-1.446.257-.447.172-.836.46-1.168.867-.337.405-.598.947-.801 1.622-.198.677-.292 1.506-.292 2.487 0 1.99.355 3.465 1.072 4.427.718.957 1.547 1.434 2.484 1.434.941 0 1.742-.252 2.41-.768.671-.517 1.047-1.27 1.153-2.253h4.857zM90.932 32.846V14.709h4.524v2.156c.394-.62.807-1.103 1.242-1.45a5.15 5.15 0 0 1 1.335-.794c.456-.188.92-.305 1.39-.355.47-.052.946-.072 1.443-.072h.63v4.937a8.091 8.091 0 0 0-1.334-.108c-2.94 0-4.411 1.46-4.411 4.385v9.438h-4.819zM113.659 22.008c-.022-.665-.144-1.248-.353-1.752a3.59 3.59 0 0 0-.834-1.25 3.395 3.395 0 0 0-1.185-.743 3.99 3.99 0 0 0-1.371-.24c-.964 0-1.796.352-2.503 1.052-.704.7-1.107 1.68-1.207 2.933h7.453zm-7.6 3.021c.075 1.379.476 2.468 1.204 3.286.729.812 1.689 1.213 2.872 1.213.789 0 1.49-.175 2.096-.538.607-.352.997-.853 1.169-1.493h4.969c-.57 1.871-1.56 3.312-2.967 4.316-1.41 1.006-3.09 1.513-5.045 1.513-6.077 0-9.12-3.296-9.12-9.882 0-1.4.197-2.666.595-3.794.39-1.134.968-2.104 1.723-2.917a7.447 7.447 0 0 1 2.763-1.86c1.085-.429 2.337-.642 3.746-.642 2.816 0 4.95.897 6.391 2.69 1.447 1.795 2.178 4.497 2.178 8.108h-12.575zM131.199 23.963c-.247.242-.604.438-1.073.588-.473.147-1.154.307-2.044.478-1.388.27-2.337.614-2.854 1.033-.522.42-.777 1.021-.777 1.805 0 1.355.777 2.027 2.338 2.027.615 0 1.185-.102 1.718-.31.538-.206.99-.492 1.374-.848.379-.356.696-.777.925-1.255.234-.48.355-.988.355-1.533l.038-1.985zm.33 8.883a7.081 7.081 0 0 1-.294-1.621c-.57.637-1.322 1.15-2.263 1.529-.942.381-2.026.571-3.26.571-2.1 0-3.637-.462-4.617-1.383-.978-.92-1.466-2.116-1.466-3.596 0-1.3.21-2.34.63-3.113a4.65 4.65 0 0 1 1.743-1.826c.744-.442 1.625-.77 2.652-.977a55.993 55.993 0 0 1 3.356-.568c1.21-.174 2.024-.401 2.443-.685.423-.28.632-.744.632-1.385 0-.586-.279-1.047-.834-1.382-.557-.33-1.302-.494-2.241-.494-1.113 0-1.912.247-2.393.737-.483.492-.786 1.139-.91 1.954h-4.486c.023-.931.181-1.797.465-2.579a4.914 4.914 0 0 1 1.371-2.031c.633-.564 1.452-1 2.465-1.305 1.004-.311 2.243-.464 3.697-.464 1.426 0 2.643.16 3.638.48.997.318 1.8.778 2.404 1.382.602.602 1.04 1.351 1.315 2.249.264.9.4 1.91.4 3.043v11.464h-4.446zM152.849 32.843h4.82V14.708h-4.82v18.135zm0-20.31h4.82V8.07h-4.82v4.462zM165.38 32.846l-6.522-18.137h5.376l3.82 11.98 3.853-11.98h5.08l-6.561 18.137zM187.739 23.963c-.245.242-.605.438-1.076.588-.469.147-1.145.307-2.033.478-1.387.27-2.343.614-2.862 1.033-.511.42-.776 1.021-.776 1.805 0 1.355.776 2.027 2.337 2.027.617 0 1.191-.102 1.728-.31a4.261 4.261 0 0 0 1.367-.848c.386-.356.693-.777.93-1.255.231-.48.347-.988.347-1.533l.038-1.985zm.335 8.883a7.177 7.177 0 0 1-.295-1.621c-.571.637-1.327 1.15-2.261 1.529-.94.381-2.027.571-3.265.571-2.102 0-3.641-.462-4.616-1.383-.976-.92-1.466-2.116-1.466-3.596 0-1.3.214-2.34.628-3.113.426-.776 1-1.381 1.746-1.826.743-.442 1.626-.77 2.654-.977a55.115 55.115 0 0 1 3.351-.568c1.212-.174 2.03-.401 2.451-.685.417-.28.628-.744.628-1.385 0-.586-.275-1.047-.832-1.382-.56-.33-1.31-.494-2.247-.494-1.113 0-1.908.247-2.39.737-.479.492-.784 1.139-.903 1.954h-4.493c.027-.931.18-1.797.464-2.579.284-.79.741-1.464 1.369-2.031.631-.564 1.459-1 2.466-1.305 1.015-.311 2.249-.464 3.703-.464 1.424 0 2.637.16 3.639.48.993.318 1.797.778 2.4 1.382.604.602 1.04 1.351 1.315 2.249.27.9.402 1.91.402 3.043v11.464h-4.448zM17.349 17.976v-3.392h2.555V9.505h4.734v5.079h2.978v3.392h-2.978v9.622c0 .744.096 1.209.29 1.39.188.185.769.276 1.745.276.147 0 .3 0 .463-.007.164-.003.318-.014.48-.025v3.56l-2.267.082c-2.266.08-3.811-.307-4.64-1.169-.538-.544-.805-1.39-.805-2.525V17.976H17.35zM138.376 17.943v-3.39h2.55V9.476h4.74v5.079h2.974v3.39h-2.975v9.62c0 .747.098 1.212.29 1.395.19.185.768.28 1.74.28.15 0 .306-.004.468-.014.157-.003.318-.01.477-.023v3.556l-2.268.086c-2.262.075-3.81-.313-4.64-1.168-.535-.547-.806-1.387-.806-2.525V17.943h-2.55zM192.806 2.935a2.443 2.443 0 0 1-2.449 2.437 2.444 2.444 0 0 1-2.446-2.437A2.446 2.446 0 0 1 190.357.5a2.445 2.445 0 0 1 2.45 2.435M201.582 6.165a2.865 2.865 0 0 1-2.872 2.854 2.86 2.86 0 0 1-2.867-2.854 2.856 2.856 0 0 1 2.867-2.854 2.862 2.862 0 0 1 2.872 2.854M206.988 14.516a3.617 3.617 0 0 1-3.628 3.611 3.618 3.618 0 0 1-3.63-3.61c0-1.995 1.624-3.605 3.63-3.605 2.005 0 3.628 1.61 3.628 3.604"/>
    </g>
</svg>
