<?xml version="1.0" encoding="utf-8"?>
<!-- Generator: Adobe Illustrator 22.1.0, SVG Export Plug-In . SVG Version: 6.00 Build 0)  -->
<svg version="1.1" id="Capa_1" xmlns="http://www.w3.org/2000/svg" xmlns:xlink="http://www.w3.org/1999/xlink" x="0px" y="0px"
	 viewBox="0 0 20.1 126.8" style="enable-background:new 0 0 20.1 126.8;" xml:space="preserve">
<style type="text/css">
	.st0{fill:#FFFFFF;}
</style>
<path class="st0" d="M12,119.8c-0.5,0.1-0.9,0.3-1.1,0.6c-0.2,0.3-0.3,0.8-0.3,1.4s0.1,1.1,0.2,1.4c0.1,0.3,0.4,0.5,0.7,0.5
	s0.5-0.2,0.7-0.5s0.4-0.8,0.5-1.4l0.7-2.5c0.2-0.7,0.4-1.2,0.7-1.6s0.6-0.7,1-0.9c0.4-0.2,0.9-0.3,1.5-0.3c1,0,1.8,0.4,2.5,1.2
	c0.7,0.8,1,2.1,1,3.7c0,0.8-0.1,1.5-0.3,2.2s-0.4,1.2-0.8,1.7c-0.3,0.4-0.7,0.8-1.2,1.1c-0.5,0.2-1,0.4-1.6,0.4v-3
	c0.5,0,0.9-0.2,1.2-0.6c0.3-0.4,0.4-1,0.4-1.6s-0.1-1-0.3-1.4c-0.2-0.4-0.4-0.6-0.8-0.6s-0.7,0.1-0.9,0.4c-0.2,0.3-0.3,0.7-0.5,1.4
	c-0.2,1.1-0.5,2-0.8,2.6c-0.3,0.7-0.6,1.2-0.9,1.6c-0.3,0.4-0.7,0.6-1,0.8c-0.4,0.1-0.8,0.2-1.3,0.2c-0.4,0-0.8-0.1-1.2-0.3
	c-0.4-0.2-0.7-0.5-1-0.8c-0.3-0.4-0.5-0.9-0.7-1.5s-0.3-1.3-0.3-2.2c0-1.6,0.3-2.8,1-3.5c0.6-0.7,1.5-1.1,2.7-1.2v2.7H12z"/>
<path class="st0" d="M14.3,101.8c0.1,0.2,0.3,0.4,0.4,0.7c0.1,0.3,0.2,0.7,0.3,1.2c0.2,0.8,0.4,1.4,0.6,1.8c0.3,0.3,0.6,0.5,1.1,0.5
	c0.8,0,1.2-0.5,1.2-1.4c0-0.4-0.1-0.7-0.2-1.1c-0.1-0.3-0.3-0.6-0.5-0.8c-0.2-0.2-0.5-0.4-0.8-0.6c-0.3-0.1-0.6-0.2-0.9-0.2
	C15.5,101.9,14.3,101.8,14.3,101.8z M19.7,101.6c-0.3,0.1-0.7,0.2-1,0.2c0.4,0.3,0.7,0.8,0.9,1.4c0.2,0.6,0.3,1.2,0.3,2
	c0,1.3-0.3,2.2-0.8,2.8c-0.6,0.6-1.3,0.9-2.2,0.9c-0.8,0-1.4-0.1-1.9-0.4c-0.5-0.2-0.8-0.6-1.1-1.1s-0.5-1-0.6-1.6
	c-0.1-0.7-0.3-1.4-0.3-2.1c-0.1-0.7-0.2-1.2-0.4-1.5s-0.5-0.4-0.8-0.4c-0.4,0-0.6,0.2-0.8,0.5s-0.3,0.8-0.3,1.4
	c0,0.7,0.1,1.2,0.4,1.5c0.3,0.3,0.7,0.5,1.2,0.6v2.8c-0.5,0-1.1-0.1-1.6-0.3c-0.5-0.2-0.9-0.5-1.2-0.8c-0.3-0.4-0.6-0.9-0.8-1.5
	s-0.3-1.4-0.3-2.3s0.1-1.6,0.3-2.2s0.5-1.1,0.8-1.5c0.4-0.4,0.8-0.6,1.4-0.8c0.5-0.2,1.2-0.2,1.9-0.2h7L19.7,101.6L19.7,101.6z
	 M19.7,96.8h-9v1.7h-2v-1.7c-2.7,0-4-1.6-4-4.8H7c0,0.4,0,0.7,0,0.9c0.1,0.2,0.1,0.4,0.3,0.6c0.1,0.1,0.3,0.2,0.5,0.3
	c0.2,0.1,0.5,0.1,0.8,0.1v-2h2.1v1.9h9V96.8z M19.7,89.5h-9v1.7h-2v-1.7c-2.7,0-4-1.6-4-4.8H7c0,0.4,0,0.7,0.1,0.9
	c0,0.2,0.1,0.4,0.3,0.6c0.1,0.1,0.3,0.2,0.5,0.3c0.2,0,0.5,0.1,0.8,0.1v-1.9h2.1v1.9h9L19.7,89.5L19.7,89.5z"/>
<path class="st0" d="M15.7,71.9c0.6,0.1,1.2,0.3,1.8,0.6c0.5,0.3,1,0.7,1.4,1.1c0.4,0.5,0.7,1,0.9,1.6c0.2,0.6,0.3,1.3,0.3,1.9
	c0,0.8-0.1,1.5-0.4,2.1c-0.2,0.6-0.6,1.2-1.1,1.6c-0.5,0.5-1.1,0.8-1.9,1.1c-0.7,0.2-1.6,0.4-2.6,0.4s-1.8-0.1-2.6-0.4
	c-0.7-0.3-1.3-0.6-1.8-1.1s-0.8-1-1-1.6s-0.3-1.4-0.3-2.1s0.1-1.4,0.3-2s0.5-1.1,0.9-1.6c0.4-0.4,0.8-0.8,1.3-1.1
	c0.5-0.3,1.1-0.4,1.8-0.5v3c-0.6,0.1-1,0.3-1.3,0.7c-0.3,0.4-0.5,0.9-0.5,1.4c0,0.3,0.1,0.6,0.2,0.9c0.1,0.3,0.3,0.5,0.5,0.7
	s0.6,0.4,1,0.5s0.9,0.2,1.5,0.2c1.2,0,2.1-0.2,2.7-0.7c0.6-0.4,0.9-0.9,0.9-1.5s-0.2-1.1-0.5-1.5s-0.8-0.6-1.4-0.7
	C15.7,74.9,15.7,71.9,15.7,71.9z M19.7,71.2h-11v-2.8H10c-0.4-0.2-0.7-0.5-0.9-0.8s-0.4-0.5-0.5-0.8s-0.2-0.6-0.2-0.9s0-0.6,0-0.9
	v-0.4h3c0,0.3-0.1,0.5-0.1,0.8c0,1.8,0.9,2.7,2.7,2.7h5.7V71.2L19.7,71.2z M13.1,57.2c-0.4,0-0.7,0.1-1.1,0.2
	c-0.3,0.1-0.5,0.3-0.8,0.5c-0.2,0.2-0.4,0.5-0.5,0.7c-0.1,0.3-0.1,0.6-0.1,0.8c0,0.6,0.2,1.1,0.6,1.5c0.4,0.4,1,0.7,1.8,0.7v-4.4
	H13.1z M14.9,61.9c0.8,0,1.5-0.3,2-0.7s0.7-1,0.7-1.8c0-0.5-0.1-0.9-0.3-1.3c-0.2-0.4-0.5-0.6-0.9-0.7v-3c1.1,0.3,2,1,2.6,1.8
	c0.6,0.9,0.9,1.9,0.9,3.1c0,3.7-2,5.6-6,5.6c-0.9,0-1.6-0.1-2.3-0.4c-0.7-0.2-1.3-0.6-1.8-1.1c-0.4-0.5-0.8-1-1-1.7
	c-0.3-0.7-0.4-1.4-0.4-2.3c0-1.7,0.5-3,1.6-3.9s2.7-1.3,4.9-1.3C14.9,54.2,14.9,61.9,14.9,61.9z M14.3,46.5c0.1,0.2,0.3,0.4,0.4,0.7
	c0.1,0.3,0.2,0.7,0.3,1.3c0.2,0.9,0.4,1.4,0.6,1.8c0.3,0.3,0.6,0.5,1.1,0.5c0.8,0,1.2-0.5,1.2-1.4c0-0.4-0.1-0.7-0.2-1.1
	c-0.1-0.3-0.3-0.6-0.5-0.8s-0.5-0.4-0.8-0.6c-0.3-0.1-0.6-0.2-0.9-0.2L14.3,46.5L14.3,46.5z M19.7,46.3c-0.3,0.1-0.7,0.2-1,0.2
	c0.4,0.3,0.7,0.8,0.9,1.4c0.2,0.6,0.3,1.2,0.3,2c0,1.3-0.3,2.2-0.8,2.8c-0.6,0.6-1.3,0.9-2.2,0.9c-0.8,0-1.4-0.1-1.9-0.4
	c-0.5-0.2-0.8-0.6-1.1-1.1s-0.5-1-0.6-1.6c-0.1-0.7-0.3-1.4-0.3-2.1c-0.1-0.7-0.2-1.2-0.4-1.5s-0.5-0.4-0.8-0.4
	c-0.4,0-0.6,0.2-0.8,0.5s-0.3,0.8-0.3,1.4c0,0.7,0.1,1.2,0.4,1.5c0.3,0.3,0.7,0.5,1.2,0.6v2.8c-0.6,0-1.1-0.1-1.6-0.3
	s-0.9-0.5-1.2-0.8c-0.3-0.4-0.6-0.9-0.8-1.5s-0.3-1.4-0.3-2.3c0-0.9,0.1-1.6,0.3-2.2c0.2-0.6,0.5-1.1,0.8-1.5s0.8-0.6,1.4-0.8
	c0.6-0.2,1.2-0.3,1.9-0.2h7L19.7,46.3L19.7,46.3z"/>
<path class="st0" d="M19.7,33.2v-3h-11v3H19.7L19.7,33.2z M7.3,33.2v-3H4.6v3H7.3L7.3,33.2z M19.7,25.5l-11,4v-3.3l7.3-2.3l-7.3-2.4
	v-3.1l11,4V25.5z M14.3,11.8c0.1,0.2,0.3,0.4,0.4,0.7c0.1,0.3,0.2,0.7,0.3,1.2c0.2,0.8,0.4,1.4,0.6,1.8c0.3,0.3,0.6,0.5,1.1,0.5
	c0.8,0,1.2-0.5,1.2-1.4c0-0.4-0.1-0.7-0.2-1.1c-0.2-0.6-0.7-1.1-1.3-1.4c-0.3-0.1-0.6-0.2-0.9-0.2C15.5,11.8,14.3,11.8,14.3,11.8z
	 M19.7,11.6c-0.3,0.1-0.7,0.2-1,0.2c0.4,0.3,0.7,0.8,0.9,1.4c0.2,0.6,0.3,1.2,0.3,2c0,1.3-0.3,2.2-0.8,2.8c-0.5,0.6-1.2,0.9-2.1,0.9
	c-0.8,0-1.4-0.1-1.9-0.4s-0.8-0.6-1.1-1.1s-0.5-1-0.6-1.6c-0.1-0.7-0.3-1.4-0.3-2.1c-0.1-0.7-0.2-1.2-0.4-1.5s-0.5-0.4-0.8-0.4
	c-0.4,0-0.6,0.2-0.8,0.5s-0.3,0.8-0.3,1.4c0,0.7,0.1,1.2,0.4,1.5c0.3,0.3,0.7,0.5,1.2,0.6v2.8c-0.5,0-1.1-0.1-1.6-0.3
	c-0.5-0.2-0.9-0.5-1.2-0.8C9.3,17.1,9,16.6,8.8,16s-0.3-1.4-0.3-2.3c0-0.9,0.1-1.6,0.3-2.2C9,10.9,9.3,10.4,9.6,10s0.8-0.6,1.4-0.8
	c0.4-0.2,1-0.3,1.7-0.3h7V11.6L19.7,11.6z"/>
<path class="st0" d="M10.6,116.3h-2v-1.6H5.5v-2.9h3.1V110h2.1v1.8h5.9c0.5,0,0.7-0.1,0.8-0.2c0.1-0.1,0.2-0.5,0.2-1.1
	c0-0.1,0-0.2,0-0.3c0-0.1,0-0.2,0-0.3h2.2v1.4c0,1.4-0.2,2.3-0.7,2.8c-0.3,0.3-0.8,0.5-1.5,0.5h-6.8
	C10.6,114.7,10.6,116.3,10.6,116.3z"/>
<path class="st0" d="M10.6,42.1h-2v-1.6H5.5v-2.9h3.1v-1.8h2.1v1.8h5.9c0.5,0,0.7-0.1,0.9-0.2c0.1-0.1,0.2-0.5,0.2-1.1
	c0-0.1,0-0.2,0-0.3s0-0.2,0-0.3h2.2l0.1,1.4c0,1.4-0.2,2.3-0.7,2.8c-0.3,0.3-0.8,0.5-1.5,0.5H11C10.6,40.5,10.6,42.1,10.6,42.1z
	 M1.5,8.7C2.3,8.7,3,9.4,3,10.2s-0.7,1.5-1.5,1.5S0,11,0,10.2S0.7,8.7,1.5,8.7 M3.5,3.3c1,0,1.7,0.8,1.7,1.8S4.4,6.9,3.5,6.9
	c-1,0-1.7-0.8-1.7-1.8C1.7,4.1,2.5,3.3,3.5,3.3 M8.5,0c1.2,0,2.2,1,2.2,2.2s-1,2.2-2.2,2.2s-2.2-1-2.2-2.2S7.3,0,8.5,0"/>
</svg>
