<svg xmlns="http://www.w3.org/2000/svg" xmlns:xlink="http://www.w3.org/1999/xlink" width="89" height="14" viewBox="0 0 89 14">
    <defs>
        <path id="a" d="M0 .004h7.2v8.141H0z"/>
    </defs>
    <g fill="none" fill-rule="evenodd">
        <g transform="translate(0 5.85)">
            <mask id="b" fill="#fff">
                <use xlink:href="#a"/>
            </mask>
            <path fill="#FFF" d="M4.987 2.549c-.053-.356-.19-.616-.408-.777-.217-.163-.547-.244-.994-.244-.425 0-.746.05-.964.15a.518.518 0 0 0-.327.51c0 .21.11.378.327.502.218.126.535.248.948.362l1.722.48c.465.13.84.287 1.121.464.283.179.484.4.606.668.122.267.182.626.182 1.074 0 .693-.293 1.267-.875 1.724-.585.455-1.45.683-2.597.683A5.746 5.746 0 0 1 2.2 7.957a3.619 3.619 0 0 1-1.17-.543 2.506 2.506 0 0 1-.75-.848c-.175-.33-.266-.7-.28-1.109h2.136c0 .371.147.658.437.86.295.203.674.304 1.141.304.392 0 .73-.061 1.012-.182.28-.121.422-.307.422-.559 0-.283-.105-.489-.311-.615-.208-.126-.523-.236-.947-.33-.766-.169-1.38-.345-1.848-.528-.468-.184-.831-.386-1.092-.608-.26-.22-.435-.46-.526-.723a2.714 2.714 0 0 1-.135-.883c0-.295.06-.572.184-.834a1.82 1.82 0 0 1 .581-.693c.265-.201.61-.361 1.035-.48.424-.122.946-.182 1.56-.182 1.126 0 1.95.224 2.47.675.519.45.806 1.075.859 1.87h-1.99z" mask="url(#b)"/>
        </g>
        <path fill="#FFF" d="M17.556 10.003a1.152 1.152 0 0 1-.463.251 8.476 8.476 0 0 1-.876.204c-.595.115-1.005.262-1.226.44-.223.18-.335.436-.335.77 0 .578.335.864 1.004.864.266 0 .511-.044.74-.132a1.818 1.818 0 0 0 .988-.897c.101-.205.15-.42.15-.653l.018-.847zm.143 3.788c-.064-.2-.108-.431-.127-.692-.245.272-.57.49-.973.652-.403.163-.87.244-1.403.244-.9 0-1.562-.197-1.982-.59-.42-.392-.63-.902-.63-1.533 0-.554.092-.997.271-1.327.181-.331.43-.59.75-.779a3.615 3.615 0 0 1 1.14-.416c.44-.089.92-.17 1.44-.242.52-.075.871-.171 1.052-.292.181-.12.269-.318.269-.591 0-.25-.118-.446-.359-.589-.237-.14-.558-.21-.962-.21-.477 0-.82.104-1.028.313-.206.21-.337.486-.39.834H12.84c.01-.398.077-.767.2-1.1.12-.337.318-.624.588-.866.272-.24.624-.426 1.058-.556.435-.133.966-.198 1.59-.198.613 0 1.135.068 1.564.205.428.135.773.331 1.031.589.26.256.448.576.564.959.116.383.175.814.175 1.297v4.888h-1.911zM21.108 13.79V7.503h-1.163V6.058h1.163c0-1.886 1.113-2.83 3.344-2.83v1.651a3.17 3.17 0 0 0-.644.053.823.823 0 0 0-.392.197.767.767 0 0 0-.197.37 2.335 2.335 0 0 0-.056.559H24.5v1.445h-1.337v6.287h-2.055zM26.221 13.79V7.503h-1.164V6.058h1.164c0-1.886 1.114-2.83 3.346-2.83v1.651c-.267 0-.483.018-.648.053a.83.83 0 0 0-.39.197.755.755 0 0 0-.2.37 2.509 2.509 0 0 0-.054.559h1.338v1.445h-1.338v6.287h-2.054z"/>
        <path fill="#DDDD03" d="M38.54 10.993c-.055.45-.184.86-.392 1.225a3.335 3.335 0 0 1-.789.945 3.619 3.619 0 0 1-1.09.612c-.409.146-.852.22-1.33.22a3.944 3.944 0 0 1-1.457-.26 3.02 3.02 0 0 1-1.14-.786 3.655 3.655 0 0 1-.742-1.304c-.174-.52-.26-1.124-.26-1.818 0-.689.086-1.285.26-1.789.177-.504.423-.915.742-1.234.32-.32.703-.558 1.156-.715.45-.16.952-.237 1.505-.237.51 0 .974.07 1.393.206a3.23 3.23 0 0 1 1.099.597c.314.262.56.576.742.942.18.368.286.777.319 1.227h-2.088c-.054-.4-.215-.709-.483-.936a1.526 1.526 0 0 0-.998-.337c-.224 0-.43.038-.621.11-.192.073-.36.196-.502.369-.145.172-.257.403-.344.691-.085.289-.125.642-.125 1.06 0 .85.152 1.478.46 1.888.309.408.665.612 1.067.612.405 0 .749-.108 1.035-.328.289-.22.45-.542.496-.96h2.087zM39.066 13.79V6.058h1.943v.92c.17-.265.347-.471.534-.619.184-.147.374-.26.573-.339.196-.08.395-.13.597-.151.202-.022.407-.03.62-.03h.27v2.104a3.502 3.502 0 0 0-.572-.046c-1.263 0-1.895.623-1.895 1.87v4.023h-2.07zM48.83 9.17a2.099 2.099 0 0 0-.153-.747 1.53 1.53 0 0 0-.358-.533 1.46 1.46 0 0 0-.509-.317 1.726 1.726 0 0 0-.589-.102c-.414 0-.771.15-1.075.449-.303.298-.476.716-.519 1.25h3.202zm-3.266 1.288c.032.588.205 1.052.517 1.4.314.347.726.518 1.234.518.34 0 .64-.075.9-.23.261-.15.43-.363.503-.636h2.135c-.245.798-.67 1.412-1.275 1.84-.606.43-1.327.645-2.167.645-2.611 0-3.918-1.405-3.918-4.213 0-.597.084-1.136.255-1.617a3.45 3.45 0 0 1 .74-1.244 3.2 3.2 0 0 1 1.188-.793c.466-.183 1.003-.274 1.609-.274 1.21 0 2.126.382 2.746 1.147.62.765.935 1.917.935 3.457h-5.402zM56.364 10.003c-.105.104-.259.187-.46.251a8.594 8.594 0 0 1-.878.204c-.597.115-1.005.262-1.227.44-.224.18-.333.436-.333.77 0 .578.333.864 1.004.864.264 0 .51-.044.738-.132.231-.088.425-.21.59-.362.163-.152.3-.33.398-.535.1-.205.152-.42.152-.653l.016-.847zm.143 3.788c-.065-.2-.107-.431-.127-.692-.245.272-.568.49-.972.652-.405.163-.87.244-1.4.244-.903 0-1.563-.197-1.984-.59-.42-.392-.63-.902-.63-1.533 0-.554.09-.997.27-1.327.18-.331.43-.59.75-.779.32-.188.698-.328 1.139-.416.439-.089.922-.17 1.441-.242.52-.075.87-.171 1.05-.292.182-.12.272-.318.272-.591 0-.25-.12-.446-.359-.589-.24-.14-.56-.21-.963-.21-.478 0-.82.104-1.028.313-.207.21-.337.486-.39.834h-1.927c.01-.398.077-.767.2-1.1.122-.337.315-.624.588-.866.272-.24.624-.426 1.06-.556.43-.133.963-.198 1.588-.198.612 0 1.135.068 1.562.205.428.135.773.331 1.033.589.259.256.447.576.565.959.113.383.172.814.172 1.297v4.888h-1.91zM65.666 13.79h2.07V6.058h-2.07v7.732zm0-8.66h2.07V3.228h-2.07V5.13zM71.05 13.79l-2.803-7.732h2.31l1.641 5.108 1.655-5.108h2.183l-2.82 7.732zM80.655 10.003c-.106.104-.26.187-.462.251a8.406 8.406 0 0 1-.874.204c-.596.115-1.006.262-1.23.44-.22.18-.333.436-.333.77 0 .578.334.864 1.004.864.265 0 .512-.044.743-.132a1.814 1.814 0 0 0 .987-.896c.099-.206.149-.422.149-.654l.016-.847zm.144 3.788c-.064-.2-.107-.431-.127-.692-.245.272-.57.49-.971.652-.404.163-.871.244-1.403.244-.903 0-1.564-.197-1.983-.59-.42-.392-.63-.902-.63-1.533 0-.554.092-.997.27-1.327.183-.331.43-.59.75-.779a3.627 3.627 0 0 1 1.14-.416c.44-.089.918-.17 1.44-.242.52-.075.872-.171 1.053-.292.179-.12.27-.318.27-.591 0-.25-.119-.446-.358-.589-.24-.14-.562-.21-.965-.21-.478 0-.82.104-1.027.313-.206.21-.337.486-.388.834h-1.93a3.49 3.49 0 0 1 .2-1.1c.121-.337.318-.624.587-.866.272-.24.627-.426 1.06-.556.436-.133.966-.198 1.59-.198.612 0 1.133.068 1.564.205.426.135.772.331 1.031.589.26.256.447.576.565.959.116.383.173.814.173 1.297v4.888h-1.911z"/>
        <path fill="#FFF" d="M7.453 7.45V6.005h1.098V3.84h2.034v2.165h1.28v1.447h-1.28v4.102c0 .317.041.515.124.593.081.079.33.118.75.118a4.624 4.624 0 0 0 .405-.014v1.518l-.974.035c-.973.033-1.637-.131-1.993-.499-.231-.232-.346-.592-.346-1.076V7.45H7.453z"/>
        <path fill="#DDDD03" d="M59.448 7.437V5.992h1.095V3.826h2.036v2.166h1.279v1.445h-1.279v4.102c0 .318.043.516.125.595.082.078.33.118.748.118.064 0 .13-.001.2-.005.068-.002.137-.005.206-.01v1.516l-.975.037c-.972.032-1.636-.134-1.993-.498-.23-.234-.347-.592-.347-1.077V7.437h-1.095zM82.832 1.038c0 .574-.471 1.04-1.052 1.04a1.046 1.046 0 0 1-1.051-1.04C80.729.467 81.2 0 81.779 0c.582 0 1.053.467 1.053 1.038M86.602 2.415c0 .672-.553 1.217-1.234 1.217a1.224 1.224 0 0 1-1.231-1.217c0-.673.55-1.217 1.231-1.217s1.234.544 1.234 1.217M88.925 5.976c0 .852-.698 1.54-1.56 1.54-.861 0-1.559-.688-1.559-1.54 0-.85.698-1.537 1.56-1.537.861 0 1.559.686 1.559 1.537"/>
    </g>
</svg>
