<svg xmlns="http://www.w3.org/2000/svg" xmlns:xlink="http://www.w3.org/1999/xlink" width="120" height="19" viewBox="0 0 120 19">
    <defs>
        <path id="a" d="M0 .005h9.708v11.05H0z"/>
        <path id="c" d="M0 18.994h119.899V0H0z"/>
    </defs>
    <g fill="none" fill-rule="evenodd">
        <g transform="translate(0 7.94)">
            <mask id="b" fill="#fff">
                <use xlink:href="#a"/>
            </mask>
            <path fill="#1D1D1B" d="M6.725 3.459c-.073-.483-.256-.836-.55-1.054-.294-.22-.74-.33-1.342-.33-.572 0-1.005.066-1.299.202-.293.132-.441.365-.441.692 0 .285.148.513.441.681.294.172.721.338 1.279.491.915.258 1.69.474 2.32.653.628.177 1.133.389 1.513.629.38.242.652.544.817.906.164.363.245.85.245 1.459 0 .94-.395 1.719-1.18 2.338-.79.618-1.954.928-3.5.928a7.7 7.7 0 0 1-2.063-.256c-.615-.172-1.142-.416-1.579-.736a3.394 3.394 0 0 1-1.01-1.151A3.413 3.413 0 0 1 0 7.406h2.879c0 .503.197.893.589 1.168.397.275.908.412 1.538.412.53 0 .985-.084 1.365-.248.378-.164.569-.416.569-.758 0-.384-.141-.663-.42-.835-.28-.17-.705-.32-1.277-.449-1.032-.228-1.86-.467-2.492-.715-.63-.25-1.12-.524-1.47-.825-.353-.298-.588-.624-.711-.982a3.706 3.706 0 0 1-.182-1.198c0-.4.08-.776.248-1.132.163-.357.427-.671.784-.94.357-.273.823-.49 1.395-.652C3.386.086 4.09.005 4.92.005c1.518 0 2.63.305 3.33.917.7.61 1.087 1.458 1.158 2.537H6.725z" mask="url(#b)"/>
        </g>
        <path fill="#1D1D1B" d="M23.67 13.576c-.142.14-.351.254-.623.34-.273.086-.666.178-1.181.277-.803.156-1.355.355-1.654.597-.3.244-.451.591-.451 1.045 0 .784.451 1.173 1.353 1.173.359 0 .69-.06.998-.18a2.448 2.448 0 0 0 1.333-1.217c.136-.277.203-.57.203-.886l.023-1.15zm.194 5.14a4.065 4.065 0 0 1-.171-.938c-.331.368-.77.665-1.312.885-.544.22-1.174.33-1.891.33-1.215 0-2.107-.267-2.673-.8-.566-.533-.849-1.225-.849-2.081 0-.752.123-1.354.365-1.801.244-.45.58-.8 1.012-1.057.429-.255.941-.445 1.536-.565.592-.12 1.24-.23 1.942-.329.701-.1 1.174-.232 1.417-.396.245-.162.364-.43.364-.801 0-.34-.16-.606-.484-.8-.32-.19-.752-.286-1.297-.286-.644 0-1.107.143-1.387.426-.277.285-.453.66-.525 1.131h-2.598a4.65 4.65 0 0 1 .269-1.492c.163-.457.429-.847.792-1.175.368-.326.842-.579 1.428-.756.586-.18 1.302-.268 2.144-.268.826 0 1.53.093 2.107.278.578.184 1.043.45 1.392.8.35.348.603.781.76 1.3.155.521.235 1.106.235 1.762v6.633h-2.576zM28.46 18.716v-8.533h-1.568V8.22h1.568c0-2.56 1.501-3.84 4.51-3.84v2.24c-.359 0-.65.024-.87.072-.221.054-.4.14-.528.268a1.043 1.043 0 0 0-.266.503c-.052.206-.075.46-.075.757h1.803v1.962H31.23v8.533h-2.77zM35.355 18.716v-8.533h-1.57V8.22h1.57c0-2.56 1.501-3.84 4.51-3.84v2.24c-.36 0-.65.024-.873.072-.218.054-.395.14-.525.268s-.22.297-.27.503c-.047.206-.073.46-.073.757h1.804v1.962h-1.804v8.533h-2.77z"/>
        <path fill="#DDDD03" d="M51.964 14.919a4.399 4.399 0 0 1-.529 1.663c-.28.496-.63.925-1.063 1.282a4.87 4.87 0 0 1-1.47.83c-.551.199-1.148.3-1.793.3a5.288 5.288 0 0 1-1.965-.354 4.07 4.07 0 0 1-1.536-1.066c-.43-.476-.763-1.065-1.001-1.77-.235-.705-.35-1.526-.35-2.467 0-.935.115-1.745.35-2.428.238-.684.57-1.242 1-1.675a4.02 4.02 0 0 1 1.558-.97c.608-.216 1.285-.322 2.03-.322a5.99 5.99 0 0 1 1.878.28c.568.185 1.06.453 1.482.81.424.355.756.782 1 1.279.244.498.386 1.054.43 1.664H49.17c-.072-.542-.29-.961-.651-1.27-.368-.302-.815-.458-1.345-.458-.303 0-.58.052-.838.15a1.62 1.62 0 0 0-.677.5c-.195.235-.346.548-.464.94-.114.39-.169.87-.169 1.438 0 1.152.206 2.005.622 2.562.416.553.896.83 1.438.83.545 0 1.01-.147 1.396-.445.389-.299.606-.735.668-1.303h2.814zM52.673 18.716V8.22h2.62V9.47c.228-.359.467-.638.72-.839.248-.2.505-.353.773-.46a2.93 2.93 0 0 1 .805-.205c.272-.03.548-.042.836-.042h.364v2.857a4.692 4.692 0 0 0-.772-.062c-1.703 0-2.555.845-2.555 2.537v5.46h-2.791zM65.837 12.445a2.864 2.864 0 0 0-.204-1.014 2.077 2.077 0 0 0-.484-.724c-.2-.192-.43-.334-.686-.429a2.314 2.314 0 0 0-.794-.139c-.559 0-1.04.204-1.45.609-.408.405-.641.972-.7 1.697h4.318zm-4.403 1.748c.044.797.277 1.428.698 1.9.422.47.978.703 1.664.703.457 0 .863-.101 1.214-.311.351-.204.578-.494.677-.864h2.878c-.33 1.082-.903 1.916-1.718 2.497-.817.582-1.79.876-2.922.876-3.52 0-5.283-1.908-5.283-5.719 0-.809.114-1.542.345-2.194.226-.657.56-1.218.997-1.688.436-.469.97-.828 1.601-1.077.628-.248 1.353-.371 2.17-.371 1.631 0 2.867.519 3.702 1.556.838 1.039 1.261 2.603 1.261 4.692h-7.284zM75.997 13.576c-.143.14-.35.254-.621.34-.274.086-.669.178-1.184.277-.804.156-1.354.355-1.654.597-.302.244-.45.591-.45 1.045 0 .784.45 1.173 1.355 1.173.356 0 .686-.06.995-.18.311-.12.573-.284.796-.49.22-.206.403-.45.536-.727.135-.277.205-.57.205-.886l.022-1.15zm.192 5.14a4.093 4.093 0 0 1-.17-.938c-.331.368-.767.665-1.312.885-.546.22-1.173.33-1.888.33-1.217 0-2.107-.267-2.675-.8-.566-.533-.849-1.225-.849-2.081 0-.752.122-1.354.365-1.801.241-.45.58-.8 1.01-1.057a4.878 4.878 0 0 1 1.536-.565c.592-.12 1.244-.23 1.944-.329.7-.1 1.173-.232 1.415-.396.245-.162.366-.43.366-.801 0-.34-.161-.606-.483-.8-.323-.19-.754-.286-1.298-.286-.645 0-1.108.143-1.386.426-.28.285-.455.66-.528 1.131h-2.598c.014-.539.105-1.04.27-1.492.165-.457.426-.847.794-1.175.366-.326.84-.579 1.428-.756.581-.18 1.299-.268 2.141-.268.826 0 1.531.093 2.107.278.578.184 1.043.45 1.393.8.349.348.602.781.762 1.3.152.521.231 1.106.231 1.762v6.633H76.19z"/>
        <mask id="d" fill="#fff">
            <use xlink:href="#c"/>
        </mask>
        <path fill="#DDDD03" d="M88.538 18.714h2.792V8.221h-2.792v10.493zm0-11.752h2.792V4.381h-2.792v2.581zM95.797 18.716L92.02 8.22h3.114l2.213 6.932 2.231-6.932h2.943l-3.8 10.495zM108.748 13.576c-.142.14-.35.254-.623.34-.272.086-.663.178-1.178.277-.803.156-1.357.355-1.657.597-.297.244-.45.591-.45 1.045 0 .784.45 1.173 1.354 1.173.357 0 .69-.06 1-.18.306-.12.57-.284.792-.49a2.46 2.46 0 0 0 .54-.727c.133-.277.2-.57.2-.886l.022-1.15zm.194 5.14a4.149 4.149 0 0 1-.17-.938c-.331.368-.769.665-1.31.885-.545.22-1.175.33-1.892.33-1.217 0-2.109-.267-2.673-.8-.566-.533-.85-1.225-.85-2.081 0-.752.125-1.354.364-1.801.247-.45.58-.8 1.012-1.057.43-.255.941-.445 1.537-.565.592-.12 1.238-.23 1.941-.329.702-.1 1.176-.232 1.42-.396.241-.162.363-.43.363-.801 0-.34-.159-.606-.482-.8-.323-.19-.758-.286-1.301-.286-.645 0-1.105.143-1.384.426-.278.285-.454.66-.524 1.131h-2.602c.015-.539.104-1.04.269-1.492.164-.457.429-.847.793-1.175.365-.326.845-.579 1.428-.756.588-.18 1.303-.268 2.145-.268.825 0 1.527.093 2.108.278.575.184 1.04.45 1.39.8.35.348.603.781.762 1.3.156.521.233 1.106.233 1.762v6.633h-2.577z" mask="url(#d)"/>
        <path fill="#1D1D1B" d="M10.05 10.112V8.149h1.48V5.21h2.742V8.15h1.725v1.963h-1.725v5.567c0 .43.056.7.167.805.11.107.446.16 1.012.16.085 0 .173 0 .268-.005.094-.002.184-.008.278-.014v2.06l-1.313.047c-1.313.046-2.208-.178-2.688-.676-.312-.315-.466-.805-.466-1.461v-6.483h-1.48z" mask="url(#d)"/>
        <path fill="#DDDD03" d="M80.154 10.093V8.132h1.478v-2.94h2.745v2.94H86.1v1.961h-1.723v5.566c0 .433.057.702.167.808.111.107.446.161 1.01.161.085 0 .176-.002.27-.007.09-.002.184-.006.276-.013v2.057l-1.314.05c-1.31.043-2.206-.181-2.687-.676-.31-.317-.467-.803-.467-1.461v-6.485h-1.478zM111.683 1.409c0 .778-.634 1.41-1.418 1.41-.78 0-1.417-.632-1.417-1.41 0-.775.636-1.409 1.417-1.409.784 0 1.418.634 1.418 1.409M116.767 3.278c0 .911-.745 1.651-1.664 1.651-.919 0-1.66-.74-1.66-1.651 0-.914.741-1.652 1.66-1.652.919 0 1.664.738 1.664 1.652M119.898 8.11c0 1.156-.94 2.09-2.101 2.09a2.094 2.094 0 0 1-2.103-2.09c0-1.154.94-2.085 2.103-2.085 1.16 0 2.101.93 2.101 2.085" mask="url(#d)"/>
    </g>
</svg>
