<svg xmlns="http://www.w3.org/2000/svg" xmlns:xlink="http://www.w3.org/1999/xlink" width="464" height="346" viewBox="0 0 464 346">
    <defs>
        <path id="a" d="M0 .067h117.399v134.28H0z"/>
        <path id="c" d="M0 230.832h1449.862V0H0z"/>
        <path id="e" d="M0 0h479v235H0z"/>
        <path id="g" d="M0 .067h117.399v134.28H0z"/>
    </defs>
    <g fill="none" fill-rule="evenodd">
        <g transform="translate(0 -53)">
            <g transform="translate(0 96.485)">
                <mask id="b" fill="#fff">
                    <use xlink:href="#a"/>
                </mask>
                <path fill="#1D1D1B" d="M81.315 42.038c-.874-5.869-3.09-10.156-6.65-12.812-3.548-2.68-8.932-4.018-16.218-4.018-6.92 0-12.163.806-15.711 2.46-3.548 1.607-5.335 4.44-5.335 8.41 0 3.468 1.787 6.24 5.335 8.286 3.548 2.089 8.718 4.098 15.46 5.967 11.073 3.126 20.446 5.758 28.063 7.932 7.586 2.15 13.691 4.72 18.292 7.64 4.6 2.95 7.88 6.613 9.874 11.016 1.989 4.415 2.974 10.326 2.974 17.728 0 11.42-4.778 20.89-14.267 28.42-9.55 7.511-23.64 11.28-42.342 11.28-9.183 0-17.51-1.04-24.937-3.115-7.433-2.095-13.808-5.057-19.088-8.947-5.273-3.896-9.354-8.555-12.217-13.99-2.85-5.441-4.344-11.548-4.552-18.29h34.817c0 6.12 2.386 10.852 7.121 14.192 4.81 3.34 10.988 5.008 18.605 5.008 6.393 0 11.905-1.014 16.506-3.01 4.564-1.998 6.87-5.057 6.87-9.21 0-4.665-1.7-8.066-5.071-10.149-3.383-2.076-8.522-3.884-15.442-5.453-12.48-2.772-22.501-5.68-30.13-8.696-7.617-3.041-13.545-6.363-17.791-10.021-4.258-3.621-7.103-7.59-8.59-11.939C5.423 46.392 4.69 41.531 4.69 36.17c0-4.867.972-9.435 3.004-13.758 1.963-4.336 5.157-8.159 9.476-11.432 4.32-3.316 9.96-5.948 16.873-7.92C40.95 1.049 49.46.067 59.487.067c18.347 0 31.788 3.7 40.274 11.138 8.449 7.414 13.129 17.722 13.991 30.833H81.315z" mask="url(#b)"/>
            </g>
            <path fill="#1D1D1B" d="M286.238 164.99c-1.725 1.703-4.258 3.083-7.55 4.134-3.297 1.038-8.045 2.161-14.279 3.364-9.709 1.9-16.383 4.318-19.993 7.261-3.64 2.956-5.463 7.182-5.463 12.696 0 9.526 5.463 14.253 16.371 14.253 4.332 0 8.339-.72 12.059-2.186 3.738-1.448 6.919-3.457 9.605-5.96 2.698-2.504 4.863-5.46 6.515-8.825 1.646-3.377 2.454-6.943 2.454-10.778l.28-13.96zm2.33 62.464c-1.04-3.291-1.761-7.102-2.067-11.4-4.001 4.482-9.3 8.084-15.858 10.753-6.582 2.68-14.205 4.018-22.874 4.018-14.683 0-25.475-3.248-32.315-9.728-6.846-6.473-10.266-14.882-10.266-25.287 0-9.142 1.48-16.452 4.411-21.893 2.949-5.453 7.017-9.71 12.236-12.836 5.182-3.108 11.38-5.41 18.574-6.87 7.158-1.466 15-2.797 23.48-3.994 8.486-1.227 14.2-2.821 17.143-4.818 2.96-1.972 4.392-5.233 4.392-9.74 0-4.122-1.92-7.359-5.848-9.716-3.867-2.32-9.098-3.474-15.687-3.474-7.782 0-13.38 1.734-16.763 5.178-3.358 3.463-5.488 8.012-6.35 13.746h-31.422c.166-6.552 1.242-12.64 3.255-18.137 1.97-5.55 5.182-10.295 9.58-14.283 4.448-3.963 10.175-7.029 17.26-9.178 7.096-2.187 15.747-3.261 25.933-3.261 9.984 0 18.5 1.123 25.481 3.377 6.98 2.235 12.603 5.471 16.824 9.715 4.246 4.232 7.299 9.502 9.183 15.817 1.89 6.326 2.857 13.434 2.857 21.397v80.614H288.57zM344.152 227.451V123.754h-18.96v-23.84h18.96c0-31.108 18.152-46.68 54.529-46.68v27.242c-4.332 0-7.856.287-10.505.867-2.686.654-4.84 1.71-6.4 3.255-1.516 1.551-2.63 3.603-3.211 6.107-.624 2.51-.912 5.587-.912 9.209h21.805v23.84h-21.805v103.697h-33.501zM427.523 227.451V123.754h-18.977v-23.84h18.977c0-31.108 18.158-46.68 54.548-46.68v27.242c-4.35 0-7.874.287-10.56.867-2.643.654-4.784 1.71-6.356 3.255-1.573 1.551-2.65 3.603-3.255 6.107-.575 2.51-.887 5.587-.887 9.209h21.816v23.84h-21.816v103.697h-33.49z"/>
            <path fill="#DDDD03" d="M628.365 181.306c-.887 7.438-2.991 14.192-6.387 20.213-3.383 6.033-7.635 11.242-12.86 15.578-5.194 4.323-11.11 7.676-17.784 10.094-6.657 2.412-13.876 3.64-21.67 3.64-8.675 0-16.598-1.441-23.768-4.3-7.182-2.863-13.368-7.175-18.574-12.952-5.206-5.789-9.22-12.946-12.101-21.52-2.839-8.555-4.24-18.54-4.24-29.971 0-11.37 1.401-21.208 4.24-29.513 2.881-8.306 6.895-15.096 12.101-20.354 5.206-5.264 11.453-9.209 18.837-11.786 7.342-2.632 15.527-3.914 24.545-3.914 8.314 0 15.876 1.142 22.704 3.395 6.87 2.26 12.823 5.508 17.919 9.85 5.127 4.311 9.146 9.502 12.095 15.542 2.955 6.057 4.668 12.811 5.206 20.225h-34.04c-.874-6.583-3.511-11.682-7.88-15.432-4.447-3.676-9.855-5.563-16.267-5.563-3.652 0-7.011.623-10.125 1.808-3.132 1.209-5.855 3.236-8.186 6.094-2.355 2.846-4.184 6.656-5.61 11.407-1.383 4.758-2.043 10.59-2.043 17.484 0 14.002 2.484 24.365 7.513 31.132 5.028 6.73 10.834 10.088 17.399 10.088 6.589 0 12.199-1.777 16.873-5.405 4.705-3.633 7.335-8.934 8.082-15.84h34.021zM636.938 227.451V99.914h31.685v15.162c2.765-4.36 5.653-7.755 8.706-10.192 3.004-2.43 6.105-4.299 9.348-5.587a35.278 35.278 0 0 1 9.733-2.498c3.292-.366 6.626-.507 10.113-.507h4.405v34.717a56.46 56.46 0 0 0-9.336-.757c-20.599 0-30.901 10.27-30.901 30.832v66.367h-33.753zM796.127 151.243c-.153-4.678-1.004-8.775-2.472-12.317-1.456-3.53-3.408-6.485-5.843-8.8-2.416-2.339-5.206-4.06-8.296-5.215a27.851 27.851 0 0 0-9.605-1.691c-6.754 0-12.578 2.479-17.534 7.401-4.93 4.922-7.75 11.81-8.454 20.622h52.204zm-53.238 21.245c.532 9.692 3.34 17.355 8.436 23.102 5.109 5.71 11.832 8.53 20.122 8.53 5.524 0 10.437-1.227 14.683-3.78 4.246-2.479 6.98-6.002 8.186-10.497h34.804c-3.995 13.154-10.926 23.285-20.782 30.35-9.88 7.072-21.64 10.638-35.337 10.638-42.568 0-63.877-23.18-63.877-69.493 0-9.838 1.376-18.742 4.166-26.674 2.735-7.976 6.779-14.797 12.065-20.513 5.267-5.691 11.728-10.063 19.357-13.086 7.598-3.01 16.365-4.513 26.24-4.513 19.723 0 34.663 6.308 44.764 18.918 10.131 12.623 15.252 31.627 15.252 57.018h-88.08zM918.986 164.99c-1.725 1.703-4.227 3.083-7.513 4.134-3.31 1.038-8.081 2.161-14.316 3.364-9.72 1.9-16.371 4.318-19.993 7.261-3.652 2.956-5.439 7.182-5.439 12.696 0 9.526 5.44 14.253 16.372 14.253 4.307 0 8.302-.72 12.034-2.186 3.768-1.448 6.931-3.457 9.63-5.96 2.648-2.504 4.87-5.46 6.478-8.825 1.634-3.377 2.484-6.943 2.484-10.778l.263-13.96zm2.319 62.464c-1.052-3.291-1.738-7.102-2.062-11.4-3.995 4.482-9.262 8.084-15.851 10.753-6.602 2.68-14.194 4.018-22.832 4.018-14.714 0-25.481-3.248-32.346-9.728-6.846-6.473-10.266-14.882-10.266-25.287 0-9.142 1.475-16.452 4.411-21.893 2.913-5.453 7.005-9.71 12.212-12.836 5.212-3.108 11.38-5.41 18.574-6.87 7.158-1.466 15.037-2.797 23.505-3.994 8.473-1.227 14.18-2.821 17.118-4.818 2.96-1.972 4.423-5.233 4.423-9.74 0-4.122-1.952-7.359-5.843-9.716-3.903-2.32-9.122-3.474-15.698-3.474-7.795 0-13.392 1.734-16.763 5.178-3.384 3.463-5.5 8.012-6.375 13.746h-31.416c.16-6.552 1.267-12.64 3.255-18.137 2-5.55 5.158-10.295 9.605-14.283 4.43-3.963 10.168-7.029 17.265-9.178 7.03-2.187 15.71-3.261 25.897-3.261 9.984 0 18.513 1.123 25.481 3.377 6.98 2.235 12.603 5.471 16.836 9.715 4.222 4.232 7.287 9.502 9.214 15.817 1.848 6.326 2.802 13.434 2.802 21.397v80.614h-31.146z"/>
            <mask id="d" fill="#fff">
                <use xlink:href="#c"/>
            </mask>
            <path fill="#DDDD03" d="M1070.638 227.437h33.764V99.91h-33.764v127.526zm0-142.823h33.764V53.238h-33.764v31.376zM1158.417 227.451L1112.73 99.914h37.655l26.76 84.247 26.986-84.247h35.588l-45.964 127.537zM1315.027 164.99c-1.72 1.703-4.24 3.083-7.537 4.134-3.286 1.038-8.021 2.161-14.243 3.364-9.715 1.9-16.408 4.318-20.042 7.261-3.585 2.956-5.439 7.182-5.439 12.696 0 9.526 5.439 14.253 16.372 14.253 4.319 0 8.344-.72 12.1-2.186 3.696-1.448 6.896-3.457 9.575-5.96 2.704-2.504 4.858-5.46 6.516-8.825 1.621-3.377 2.435-6.943 2.435-10.778l.263-13.96zm2.343 62.464c-1.034-3.291-1.744-7.102-2.062-11.4-4 4.482-9.293 8.084-15.839 10.753-6.589 2.68-14.2 4.018-22.869 4.018-14.725 0-25.505-3.248-32.333-9.728-6.833-6.473-10.266-14.882-10.266-25.287 0-9.142 1.5-16.452 4.4-21.893 2.979-5.453 7.004-9.71 12.229-12.836 5.2-3.108 11.385-5.41 18.586-6.87 7.158-1.466 14.97-2.797 23.474-3.994 8.486-1.227 14.218-2.821 17.167-4.818 2.918-1.972 4.399-5.233 4.399-9.74 0-4.122-1.927-7.359-5.83-9.716-3.916-2.32-9.171-3.474-15.736-3.474-7.794 0-13.367 1.734-16.738 5.178-3.359 3.463-5.494 8.012-6.332 13.746h-31.47c.189-6.552 1.266-12.64 3.254-18.137 1.988-5.55 5.188-10.295 9.587-14.283 4.423-3.963 10.217-7.029 17.27-9.178 7.11-2.187 15.754-3.261 25.94-3.261 9.973 0 18.47 1.123 25.488 3.377 6.956 2.235 12.59 5.471 16.818 9.715 4.227 4.232 7.28 9.502 9.207 15.817 1.884 6.326 2.814 13.434 2.814 21.397v80.614h-31.158z" mask="url(#d)"/>
            <path fill="#1D1D1B" d="M121.521 122.887V99.034h17.9V63.322h33.16v35.712h20.856v23.853H172.58v67.662c0 5.233.673 8.5 2.025 9.777 1.321 1.3 5.39 1.941 12.23 1.941 1.027 0 2.092 0 3.242-.048a67.918 67.918 0 0 0 3.359-.177v25.037l-15.876.574c-15.876.556-26.699-2.162-32.498-8.22-3.775-3.829-5.641-9.776-5.641-17.758v-78.788H121.52z" mask="url(#d)"/>
            <path fill="#DDDD03" d="M969.259 122.66V98.826h17.864V63.108h33.196v35.718h20.837v23.834h-20.837v67.65c0 5.252.685 8.525 2.025 9.813 1.34 1.301 5.383 1.96 12.199 1.96 1.04 0 2.135-.024 3.273-.091a61.71 61.71 0 0 0 3.34-.159v25.001l-15.888.605c-15.845.53-26.68-2.199-32.498-8.214-3.75-3.847-5.647-9.752-5.647-17.752V122.66h-17.864zM1350.522 17.124c0 9.459-7.678 17.135-17.155 17.135-9.44 0-17.136-7.676-17.136-17.135C1316.23 7.7 1323.927 0 1333.367 0c9.477 0 17.155 7.7 17.155 17.123M1411.994 39.833c0 11.077-9.012 20.072-20.122 20.072s-20.08-8.995-20.08-20.072c0-11.102 8.97-20.067 20.08-20.067 11.11 0 20.122 8.965 20.122 20.067M1449.86 98.562c0 14.051-11.373 25.391-25.414 25.391-14.053 0-25.432-11.34-25.432-25.391 0-14.027 11.38-25.343 25.432-25.343 14.04 0 25.414 11.316 25.414 25.343" mask="url(#d)"/>
        </g>
        <g transform="translate(113 188)">
            <mask id="f" fill="#fff">
                <use xlink:href="#e"/>
            </mask>
            <g mask="url(#f)">
                <g transform="translate(-502 23.485)">
                    <mask id="h" fill="#fff">
                        <use xlink:href="#g"/>
                    </mask>
                    <path fill="#FFF" d="M81.315 42.038c-.874-5.869-3.09-10.156-6.65-12.812-3.548-2.68-8.932-4.018-16.218-4.018-6.92 0-12.163.806-15.711 2.46-3.548 1.607-5.335 4.44-5.335 8.41 0 3.468 1.787 6.24 5.335 8.286 3.548 2.089 8.718 4.098 15.46 5.967 11.073 3.126 20.446 5.758 28.063 7.932 7.586 2.15 13.691 4.72 18.292 7.64 4.6 2.95 7.88 6.613 9.874 11.016 1.989 4.415 2.974 10.326 2.974 17.728 0 11.42-4.778 20.89-14.267 28.42-9.55 7.511-23.64 11.28-42.342 11.28-9.183 0-17.51-1.04-24.937-3.115-7.433-2.095-13.808-5.057-19.088-8.947-5.273-3.896-9.354-8.555-12.217-13.99-2.85-5.441-4.344-11.548-4.552-18.29h34.817c0 6.12 2.386 10.852 7.121 14.192 4.81 3.34 10.988 5.008 18.605 5.008 6.393 0 11.905-1.014 16.506-3.01 4.564-1.998 6.87-5.057 6.87-9.21 0-4.665-1.7-8.066-5.071-10.149-3.383-2.076-8.522-3.884-15.442-5.453-12.48-2.772-22.501-5.68-30.13-8.696-7.617-3.041-13.545-6.363-17.791-10.021-4.258-3.621-7.103-7.59-8.59-11.939C5.423 46.392 4.69 41.531 4.69 36.17c0-4.867.972-9.435 3.004-13.758 1.963-4.336 5.157-8.159 9.476-11.432 4.32-3.316 9.96-5.948 16.873-7.92C40.95 1.049 49.46.067 59.487.067c18.347 0 31.788 3.7 40.274 11.138 8.449 7.414 13.129 17.722 13.991 30.833H81.315z" mask="url(#h)"/>
                </g>
                <path fill="#FFF" d="M-215.762 91.99c-1.725 1.703-4.258 3.083-7.55 4.134-3.297 1.038-8.045 2.161-14.279 3.364-9.709 1.9-16.383 4.318-19.993 7.261-3.64 2.956-5.463 7.182-5.463 12.696 0 9.526 5.463 14.253 16.371 14.253 4.332 0 8.339-.72 12.059-2.186 3.738-1.448 6.919-3.457 9.605-5.96 2.698-2.504 4.863-5.46 6.515-8.825 1.646-3.377 2.454-6.943 2.454-10.778l.28-13.96zm2.33 62.464c-1.04-3.291-1.761-7.102-2.067-11.4-4.001 4.482-9.3 8.084-15.858 10.753-6.582 2.68-14.205 4.018-22.874 4.018-14.683 0-25.475-3.248-32.315-9.728-6.846-6.473-10.266-14.882-10.266-25.287 0-9.142 1.48-16.452 4.411-21.893 2.949-5.453 7.017-9.71 12.236-12.836 5.182-3.108 11.38-5.41 18.574-6.87 7.158-1.466 15-2.797 23.48-3.994 8.486-1.227 14.2-2.821 17.143-4.818 2.96-1.972 4.392-5.233 4.392-9.74 0-4.122-1.92-7.359-5.848-9.716-3.867-2.32-9.098-3.474-15.687-3.474-7.782 0-13.38 1.734-16.763 5.178-3.358 3.463-5.488 8.012-6.35 13.746h-31.422c.166-6.552 1.242-12.64 3.255-18.137 1.97-5.55 5.182-10.295 9.58-14.283 4.448-3.963 10.175-7.029 17.26-9.178 7.096-2.187 15.747-3.261 25.933-3.261 9.984 0 18.5 1.123 25.481 3.377 6.98 2.235 12.603 5.471 16.824 9.715 4.246 4.232 7.299 9.502 9.183 15.817 1.89 6.326 2.857 13.434 2.857 21.397v80.614h-31.158zM-157.848 154.451V50.754h-18.96v-23.84h18.96c0-31.108 18.152-46.68 54.529-46.68V7.476c-4.332 0-7.856.287-10.505.867-2.686.654-4.84 1.71-6.4 3.255-1.516 1.551-2.63 3.603-3.211 6.107-.624 2.51-.912 5.587-.912 9.209h21.805v23.84h-21.805v103.697h-33.501zM-74.477 154.451V50.754h-18.977v-23.84h18.977c0-31.108 18.158-46.68 54.548-46.68V7.476c-4.35 0-7.874.287-10.56.867-2.643.654-4.784 1.71-6.356 3.255-1.573 1.551-2.65 3.603-3.255 6.107-.575 2.51-.887 5.587-.887 9.209h21.816v23.84h-21.816v103.697h-33.49z"/>
                <path fill="#DDDD03" d="M126.365 108.306c-.887 7.438-2.991 14.192-6.387 20.213-3.383 6.033-7.635 11.242-12.86 15.578-5.194 4.323-11.11 7.676-17.784 10.094-6.657 2.412-13.876 3.64-21.67 3.64-8.675 0-16.598-1.441-23.768-4.3-7.182-2.863-13.368-7.175-18.574-12.952-5.206-5.789-9.22-12.946-12.101-21.52-2.839-8.555-4.24-18.54-4.24-29.971 0-11.37 1.401-21.208 4.24-29.513 2.881-8.306 6.895-15.096 12.101-20.354 5.206-5.264 11.453-9.209 18.837-11.786 7.342-2.632 15.527-3.914 24.545-3.914 8.314 0 15.876 1.142 22.704 3.395 6.87 2.26 12.823 5.508 17.919 9.85 5.127 4.311 9.146 9.502 12.095 15.542 2.955 6.057 4.668 12.811 5.206 20.225h-34.04c-.874-6.583-3.511-11.682-7.88-15.432-4.447-3.676-9.855-5.563-16.267-5.563-3.652 0-7.011.623-10.125 1.808-3.132 1.209-5.855 3.236-8.186 6.094-2.355 2.846-4.184 6.656-5.61 11.407-1.383 4.758-2.043 10.59-2.043 17.484 0 14.002 2.484 24.365 7.513 31.132 5.028 6.73 10.834 10.088 17.399 10.088 6.589 0 12.199-1.777 16.873-5.405 4.705-3.633 7.335-8.934 8.082-15.84h34.021zM134.938 154.451V26.914h31.685v15.162c2.765-4.36 5.653-7.755 8.706-10.192 3.004-2.43 6.105-4.299 9.348-5.587a35.278 35.278 0 0 1 9.733-2.498c3.292-.366 6.626-.507 10.113-.507h4.405V58.01a56.46 56.46 0 0 0-9.336-.757c-20.599 0-30.901 10.27-30.901 30.832v66.367h-33.753zM294.127 78.243c-.153-4.678-1.004-8.775-2.472-12.317-1.456-3.53-3.408-6.485-5.843-8.8-2.416-2.339-5.206-4.06-8.296-5.215a27.851 27.851 0 0 0-9.605-1.691c-6.754 0-12.578 2.479-17.534 7.401-4.93 4.922-7.75 11.81-8.454 20.622h52.204zm-53.238 21.245c.532 9.692 3.34 17.355 8.436 23.102 5.109 5.71 11.832 8.53 20.122 8.53 5.524 0 10.437-1.227 14.683-3.78 4.246-2.479 6.98-6.002 8.186-10.497h34.804c-3.995 13.154-10.926 23.285-20.782 30.35-9.88 7.072-21.64 10.638-35.337 10.638-42.568 0-63.877-23.18-63.877-69.493 0-9.838 1.376-18.742 4.166-26.674 2.735-7.976 6.779-14.797 12.065-20.513 5.267-5.691 11.728-10.063 19.357-13.086 7.598-3.01 16.365-4.513 26.24-4.513 19.723 0 34.663 6.308 44.764 18.918 10.131 12.623 15.252 31.627 15.252 57.018h-88.08zM416.986 91.99c-1.725 1.703-4.227 3.083-7.513 4.134-3.31 1.038-8.081 2.161-14.316 3.364-9.72 1.9-16.371 4.318-19.993 7.261-3.652 2.956-5.439 7.182-5.439 12.696 0 9.526 5.44 14.253 16.372 14.253 4.307 0 8.302-.72 12.034-2.186 3.768-1.448 6.931-3.457 9.63-5.96 2.648-2.504 4.87-5.46 6.478-8.825 1.634-3.377 2.484-6.943 2.484-10.778l.263-13.96zm2.319 62.464c-1.052-3.291-1.738-7.102-2.062-11.4-3.995 4.482-9.262 8.084-15.851 10.753-6.602 2.68-14.194 4.018-22.832 4.018-14.714 0-25.481-3.248-32.346-9.728-6.846-6.473-10.266-14.882-10.266-25.287 0-9.142 1.475-16.452 4.411-21.893 2.913-5.453 7.005-9.71 12.212-12.836 5.212-3.108 11.38-5.41 18.574-6.87 7.158-1.466 15.037-2.797 23.505-3.994 8.473-1.227 14.18-2.821 17.118-4.818 2.96-1.972 4.423-5.233 4.423-9.74 0-4.122-1.952-7.359-5.843-9.716-3.903-2.32-9.122-3.474-15.698-3.474-7.795 0-13.392 1.734-16.763 5.178-3.384 3.463-5.5 8.012-6.375 13.746h-31.416c.16-6.552 1.267-12.64 3.255-18.137 2-5.55 5.158-10.295 9.605-14.283 4.43-3.963 10.168-7.029 17.265-9.178 7.03-2.187 15.71-3.261 25.897-3.261 9.984 0 18.513 1.123 25.481 3.377 6.98 2.235 12.603 5.471 16.836 9.715 4.222 4.232 7.287 9.502 9.214 15.817 1.848 6.326 2.802 13.434 2.802 21.397v80.614h-31.146zM568.638 154.437h33.764V26.91h-33.764v127.526zm0-142.823h33.764v-31.376h-33.764v31.376zM656.417 154.451L610.73 26.914h37.655l26.76 84.247 26.986-84.247h35.588L691.754 154.45zM813.027 91.99c-1.72 1.703-4.24 3.083-7.537 4.134-3.286 1.038-8.021 2.161-14.243 3.364-9.715 1.9-16.408 4.318-20.042 7.261-3.585 2.956-5.439 7.182-5.439 12.696 0 9.526 5.439 14.253 16.372 14.253 4.319 0 8.344-.72 12.1-2.186 3.696-1.448 6.896-3.457 9.575-5.96 2.704-2.504 4.858-5.46 6.516-8.825 1.621-3.377 2.435-6.943 2.435-10.778l.263-13.96zm2.343 62.464c-1.034-3.291-1.744-7.102-2.062-11.4-4 4.482-9.293 8.084-15.839 10.753-6.589 2.68-14.2 4.018-22.869 4.018-14.725 0-25.505-3.248-32.333-9.728-6.833-6.473-10.266-14.882-10.266-25.287 0-9.142 1.5-16.452 4.4-21.893 2.979-5.453 7.004-9.71 12.229-12.836 5.2-3.108 11.385-5.41 18.586-6.87 7.158-1.466 14.97-2.797 23.474-3.994 8.486-1.227 14.218-2.821 17.167-4.818 2.918-1.972 4.399-5.233 4.399-9.74 0-4.122-1.927-7.359-5.83-9.716-3.916-2.32-9.171-3.474-15.736-3.474-7.794 0-13.367 1.734-16.738 5.178-3.359 3.463-5.494 8.012-6.332 13.746h-31.47c.189-6.552 1.266-12.64 3.254-18.137 1.988-5.55 5.188-10.295 9.587-14.283 4.423-3.963 10.217-7.029 17.27-9.178 7.11-2.187 15.754-3.261 25.94-3.261 9.973 0 18.47 1.123 25.488 3.377 6.956 2.235 12.59 5.471 16.818 9.715 4.227 4.232 7.28 9.502 9.207 15.817 1.884 6.326 2.814 13.434 2.814 21.397v80.614H815.37z"/>
                <path fill="#FFF" d="M-380.479 49.887V26.034h17.9V-9.678h33.16v35.712h20.856v23.853h-20.856v67.662c0 5.233.673 8.5 2.025 9.777 1.321 1.3 5.39 1.941 12.23 1.941 1.027 0 2.092 0 3.242-.048a67.918 67.918 0 0 0 3.359-.177v25.037l-15.876.574c-15.876.556-26.699-2.162-32.498-8.22-3.775-3.829-5.641-9.776-5.641-17.758V49.887h-17.901z"/>
                <path fill="#DDDD03" d="M467.259 49.66V25.826h17.864V-9.892h33.196v35.718h20.837V49.66H518.32v67.65c0 5.252.685 8.525 2.025 9.813 1.34 1.301 5.383 1.96 12.199 1.96 1.04 0 2.135-.024 3.273-.091a61.71 61.71 0 0 0 3.34-.159v25.001l-15.888.605c-15.845.53-26.68-2.199-32.498-8.214-3.75-3.847-5.647-9.752-5.647-17.752V49.66h-17.864zM848.522-55.876c0 9.459-7.678 17.135-17.155 17.135-9.44 0-17.136-7.676-17.136-17.135C814.23-65.3 821.927-73 831.367-73c9.477 0 17.155 7.7 17.155 17.123M909.994-33.167c0 11.077-9.012 20.072-20.122 20.072s-20.08-8.995-20.08-20.072c0-11.102 8.97-20.067 20.08-20.067 11.11 0 20.122 8.965 20.122 20.067M947.86 25.562c0 14.051-11.373 25.391-25.414 25.391-14.053 0-25.432-11.34-25.432-25.391 0-14.027 11.38-25.343 25.432-25.343 14.04 0 25.414 11.316 25.414 25.343"/>
            </g>
        </g>
    </g>
</svg>
